<svg class="animated" id="freepik_stories-remote-team" xmlns="http://www.w3.org/2000/svg" viewBox="0 0 500 500" version="1.1" xmlns:xlink="http://www.w3.org/1999/xlink" xmlns:svgjs="http://svgjs.com/svgjs"><style>svg#freepik_stories-remote-team:not(.animated) .animable {opacity: 0;}svg#freepik_stories-remote-team.animated #freepik--background-complete--inject-3 {animation: 1s 1 forwards cubic-bezier(.36,-0.01,.5,1.38) slideDown;animation-delay: 0s;}svg#freepik_stories-remote-team.animated #freepik--Shadow--inject-3 {animation: 1s 1 forwards cubic-bezier(.36,-0.01,.5,1.38) slideLeft;animation-delay: 0s;}svg#freepik_stories-remote-team.animated #freepik--Desk--inject-3 {animation: 1s 1 forwards cubic-bezier(.36,-0.01,.5,1.38) slideUp;animation-delay: 0s;}svg#freepik_stories-remote-team.animated #freepik--Character--inject-3 {animation: 1s 1 forwards cubic-bezier(.36,-0.01,.5,1.38) slideUp;animation-delay: 0s;}            @keyframes slideDown {                0% {                    opacity: 0;                    transform: translateY(-30px);                }                100% {                    opacity: 1;                    transform: translateY(0);                }            }                    @keyframes slideLeft {                0% {                    opacity: 0;                    transform: translateX(-30px);                }                100% {                    opacity: 1;                    transform: translateX(0);                }            }                    @keyframes slideUp {                0% {                    opacity: 0;                    transform: translateY(30px);                }                100% {                    opacity: 1;                    transform: inherit;                }            }        </style><g id="freepik--background-complete--inject-3" class="animable" style="transform-origin: 250px 228.23px;"><rect y="382.4" width="500" height="0.25" style="fill: rgb(235, 235, 235); transform-origin: 250px 382.525px;" id="elvmvc2bu6pqc" class="animable"></rect><rect x="416.78" y="398.49" width="33.12" height="0.25" style="fill: rgb(235, 235, 235); transform-origin: 433.34px 398.615px;" id="elf2hlcf8yvld" class="animable"></rect><rect x="322.53" y="401.21" width="8.69" height="0.25" style="fill: rgb(235, 235, 235); transform-origin: 326.875px 401.335px;" id="el3yeg2jp1pf6" class="animable"></rect><rect x="396.59" y="389.21" width="19.19" height="0.25" style="fill: rgb(235, 235, 235); transform-origin: 406.185px 389.335px;" id="eloqta3hb721" class="animable"></rect><rect x="52.46" y="390.89" width="43.19" height="0.25" style="fill: rgb(235, 235, 235); transform-origin: 74.055px 391.015px;" id="eldt2vcy0a1rk" class="animable"></rect><rect x="104.56" y="390.89" width="6.33" height="0.25" style="fill: rgb(235, 235, 235); transform-origin: 107.725px 391.015px;" id="eltdheryhd5cj" class="animable"></rect><rect x="131.47" y="395.11" width="93.68" height="0.25" style="fill: rgb(235, 235, 235); transform-origin: 178.31px 395.235px;" id="elz37845aw2n" class="animable"></rect><path d="M237,337.8H43.91a5.71,5.71,0,0,1-5.7-5.71V60.66A5.71,5.71,0,0,1,43.91,55H237a5.71,5.71,0,0,1,5.71,5.71V332.09A5.71,5.71,0,0,1,237,337.8ZM43.91,55.2a5.46,5.46,0,0,0-5.45,5.46V332.09a5.46,5.46,0,0,0,5.45,5.46H237a5.47,5.47,0,0,0,5.46-5.46V60.66A5.47,5.47,0,0,0,237,55.2Z" style="fill: rgb(235, 235, 235); transform-origin: 140.46px 196.4px;" id="elv2iwz01zix" class="animable"></path><path d="M453.31,337.8H260.21a5.72,5.72,0,0,1-5.71-5.71V60.66A5.72,5.72,0,0,1,260.21,55h193.1A5.71,5.71,0,0,1,459,60.66V332.09A5.71,5.71,0,0,1,453.31,337.8ZM260.21,55.2a5.47,5.47,0,0,0-5.46,5.46V332.09a5.47,5.47,0,0,0,5.46,5.46h193.1a5.47,5.47,0,0,0,5.46-5.46V60.66a5.47,5.47,0,0,0-5.46-5.46Z" style="fill: rgb(235, 235, 235); transform-origin: 356.75px 196.4px;" id="elpx757e9eajf" class="animable"></path><g id="el52vccvp14iw"><rect x="179.59" y="74.79" width="254.22" height="253.48" style="fill: rgb(230, 230, 230); transform-origin: 306.7px 201.53px; transform: rotate(180deg);" class="animable"></rect></g><path d="M164.09,69.85H443.16a1.44,1.44,0,0,1,1.44,1.44h0a1.44,1.44,0,0,1-1.44,1.43H164.09a1.44,1.44,0,0,1-1.44-1.43h0A1.44,1.44,0,0,1,164.09,69.85Z" style="fill: rgb(230, 230, 230); transform-origin: 303.625px 71.285px;" id="elwd9nsuq6g19" class="animable"></path><g id="eln5bhrlk3isg"><rect x="173.45" y="74.79" width="257.48" height="253.48" style="fill: rgb(240, 240, 240); transform-origin: 302.19px 201.53px; transform: rotate(180deg);" class="animable"></rect></g><g id="elmvpombyg2qq"><rect x="184.04" y="81.38" width="236.3" height="240.3" style="fill: rgb(250, 250, 250); transform-origin: 302.19px 201.53px; transform: rotate(90deg);" class="animable"></rect></g><polygon points="392.68 319.68 342.26 83.38 318.46 83.38 368.88 319.68 392.68 319.68" style="fill: rgb(255, 255, 255); transform-origin: 355.57px 201.53px;" id="elkhn2y6isa9s" class="animable"></polygon><polygon points="363.77 319.68 313.35 83.38 304.07 83.38 354.49 319.68 363.77 319.68" style="fill: rgb(255, 255, 255); transform-origin: 333.92px 201.53px;" id="eld51ajb1rpbo" class="animable"></polygon><g id="elh3iwveu19da"><rect x="64.44" y="200.98" width="236.3" height="1.09" style="fill: rgb(230, 230, 230); transform-origin: 182.59px 201.525px; transform: rotate(90deg);" class="animable"></rect></g><g id="el41k7exq9pa7"><g style="opacity: 0.4; transform-origin: 414.85px 220px;" class="animable"><g id="elbu4xc23wt35"><rect x="422.24" y="67.28" width="14.78" height="305.44" style="fill: rgb(240, 240, 240); transform-origin: 429.63px 220px; transform: rotate(180deg);" class="animable"></rect></g><g id="elze6afqzpav8"><rect x="416.49" y="67.28" width="11.52" height="305.44" style="fill: rgb(230, 230, 230); transform-origin: 422.25px 220px; transform: rotate(180deg);" class="animable"></rect></g><g id="elp2ejhe2kdc"><rect x="407.46" y="67.28" width="14.78" height="305.44" style="fill: rgb(240, 240, 240); transform-origin: 414.85px 220px; transform: rotate(180deg);" class="animable"></rect></g><g id="elfv6vdu3vtc"><rect x="401.7" y="67.28" width="11.52" height="305.44" style="fill: rgb(230, 230, 230); transform-origin: 407.46px 220px; transform: rotate(180deg);" class="animable"></rect></g><g id="el9yvvwafnvdp"><rect x="392.68" y="67.28" width="14.78" height="305.44" style="fill: rgb(240, 240, 240); transform-origin: 400.07px 220px; transform: rotate(180deg);" class="animable"></rect></g></g></g><g id="elvugjkthfo2"><g style="opacity: 0.4; transform-origin: 183.28px 220px;" class="animable"><g id="elrw5oollxhap"><rect x="187.54" y="67.28" width="8.52" height="305.44" style="fill: rgb(240, 240, 240); transform-origin: 191.8px 220px; transform: rotate(180deg);" class="animable"></rect></g><g id="elsjzk0x6c89"><rect x="184.22" y="67.28" width="6.64" height="305.44" style="fill: rgb(230, 230, 230); transform-origin: 187.54px 220px; transform: rotate(180deg);" class="animable"></rect></g><g id="el50k9rr42o15"><rect x="179.02" y="67.28" width="8.52" height="305.44" style="fill: rgb(240, 240, 240); transform-origin: 183.28px 220px; transform: rotate(180deg);" class="animable"></rect></g><g id="elorzoput521"><rect x="175.7" y="67.28" width="6.64" height="305.44" style="fill: rgb(230, 230, 230); transform-origin: 179.02px 220px; transform: rotate(180deg);" class="animable"></rect></g><g id="eltra9s0j6tgd"><rect x="170.5" y="67.28" width="8.52" height="305.44" style="fill: rgb(240, 240, 240); transform-origin: 174.76px 220px; transform: rotate(180deg);" class="animable"></rect></g></g></g><g id="elrhzxmt2if5"><rect x="230.28" y="280.88" width="38.08" height="94.82" style="fill: rgb(240, 240, 240); transform-origin: 249.32px 328.29px; transform: rotate(180deg);" class="animable"></rect></g><g id="elagn0tcp7054"><rect x="64.01" y="375.69" width="197.05" height="6.7" style="fill: rgb(240, 240, 240); transform-origin: 162.535px 379.04px; transform: rotate(180deg);" class="animable"></rect></g><rect x="56.69" y="280.88" width="173.59" height="94.82" style="fill: rgb(245, 245, 245); transform-origin: 143.485px 328.29px;" id="elh4prgi4cbd" class="animable"></rect><rect x="56.69" y="287.29" width="174.26" height="34.7" style="fill: rgb(240, 240, 240); transform-origin: 143.82px 304.64px;" id="elqb8cpaq6f6s" class="animable"></rect><rect x="56.69" y="328.33" width="174.26" height="34.7" style="fill: rgb(240, 240, 240); transform-origin: 143.82px 345.68px;" id="elbwprl05mc8l" class="animable"></rect><g id="eltt2szu8vw6f"><rect x="230.28" y="287.29" width="6.59" height="34.7" style="fill: rgb(230, 230, 230); transform-origin: 233.575px 304.64px; transform: rotate(180deg);" class="animable"></rect></g><g id="el86wt87p3j1n"><rect x="230.28" y="328.33" width="6.59" height="34.7" style="fill: rgb(230, 230, 230); transform-origin: 233.575px 345.68px; transform: rotate(180deg);" class="animable"></rect></g><g id="el673i9fvx49g"><rect x="51.62" y="275.04" width="178.66" height="5.83" style="fill: rgb(240, 240, 240); transform-origin: 140.95px 277.955px; transform: rotate(180deg);" class="animable"></rect></g><rect x="230.28" y="275.04" width="43.41" height="5.83" style="fill: rgb(230, 230, 230); transform-origin: 251.985px 277.955px;" id="elbxlrtficcrq" class="animable"></rect><path d="M97.23,247.35c2.91-30.16,4.94-79.1,3.37-95.47a2,2,0,0,0-.82-1.42h0a2,2,0,0,0-3.2,1.69c.28,8.11.6,28.38-1.13,63.35-.86,17.41-2.1,29.33-1.25,31.85Z" style="fill: rgb(240, 240, 240); transform-origin: 97.5304px 198.704px;" id="elma3m16w98ze" class="animable"></path><path d="M105.58,182.48c6.65-8.56,20.4-15.32,34.5-16.36,5.53-.4-16.7,10.63-25.85,21.65-7.11,8.56-15,22.66-17.71,30.35C98.07,202.24,98.93,191,105.58,182.48Z" style="fill: rgb(240, 240, 240); transform-origin: 118.736px 192.115px;" id="elf69w14j3se6" class="animable"></path><path d="M91.66,180.64c-6.89-9.59-22.78-17-40-17.79-6.74-.33,18.93,11.7,28.51,24,7.45,9.57,15.08,25.44,17.18,34.13C97.88,203,98.54,190.22,91.66,180.64Z" style="fill: rgb(240, 240, 240); transform-origin: 74.102px 191.912px;" id="elliqwyebqi2j" class="animable"></path><path d="M105.12,154.28c5.25-7.14,16.85-13,29.13-14.2,4.83-.47-13.91,9.09-21.18,18.3-5.65,7.16-11.66,18.85-13.47,25.18C99.89,170.58,99.87,161.43,105.12,154.28Z" style="fill: rgb(240, 240, 240); transform-origin: 117.318px 161.812px;" id="elycv0k6xwob" class="animable"></path><path d="M94.54,155.75c-5.82-8.12-19.28-14.36-33.84-15.07-5.71-.27,16,9.91,24.15,20.35,6.3,8.11,12.76,21.54,14.54,28.91C99.82,174.65,100.37,163.86,94.54,155.75Z" style="fill: rgb(240, 240, 240); transform-origin: 79.6962px 165.307px;" id="el55wxex5o223" class="animable"></path><path d="M101.6,214.69c3.79-5.38,12.31-9.91,21.42-11,3.58-.42-10.2,7-15.46,13.92-4.09,5.4-8.38,14.17-9.62,18.91C98,226.88,97.8,220.08,101.6,214.69Z" style="fill: rgb(240, 240, 240); transform-origin: 110.773px 220.096px;" id="elu6l6av1ohp" class="animable"></path><path d="M94.7,211.66c-3.29-5.34-11.44-9.85-20.53-10.93-3.57-.43,9.6,6.92,14.22,13.81,3.59,5.36,7,14.07,7.84,18.76C97.17,223.74,98,217,94.7,211.66Z" style="fill: rgb(240, 240, 240); transform-origin: 85.315px 217.006px;" id="el39gg9oyl90p" class="animable"></path><path d="M96,275h0c7.26,0,13.25-1.51,13.67-8.76l1.21-20.94H81.13l1.21,20.94C82.76,273.53,88.75,275,96,275Z" style="fill: rgb(230, 230, 230); transform-origin: 96.005px 260.15px;" id="elmrtn8fzplb" class="animable"></path><path d="M81.3,250.1h29.41A2.36,2.36,0,0,0,113,248l.44-4a2.34,2.34,0,0,0-2.32-2.6H80.85a2.34,2.34,0,0,0-2.32,2.6l.44,4A2.36,2.36,0,0,0,81.3,250.1Z" style="fill: rgb(240, 240, 240); transform-origin: 95.985px 245.75px;" id="el57a2gsalp2i" class="animable"></path></g><g id="freepik--Shadow--inject-3" class="animable" style="transform-origin: 250px 416.24px;"><ellipse id="freepik--path--inject-3" cx="250" cy="416.24" rx="193.89" ry="11.32" style="fill: rgb(245, 245, 245); transform-origin: 250px 416.24px;" class="animable"></ellipse></g><g id="freepik--Desk--inject-3" class="animable" style="transform-origin: 291.307px 255.525px;"><g id="elacfjcqekxc"><rect x="164.99" y="233.75" width="239.45" height="8.67" style="fill: rgb(212, 74, 112); transform-origin: 284.715px 238.085px; transform: rotate(180deg);" class="animable"></rect></g><polygon points="382.08 414.43 379.29 414.43 365.95 242.42 372.51 242.42 382.08 414.43" style="fill: rgb(38, 50, 56); transform-origin: 374.015px 328.425px;" id="elvqtqm0bizi" class="animable"></polygon><polygon points="408.5 414.43 405.71 414.43 392.37 242.42 398.93 242.42 408.5 414.43" style="fill: rgb(38, 50, 56); transform-origin: 400.435px 328.425px;" id="elywpb0r55si" class="animable"></polygon><polygon points="187.35 414.43 190.15 414.43 203.49 242.42 196.93 242.42 187.35 414.43" style="fill: rgb(38, 50, 56); transform-origin: 195.42px 328.425px;" id="elohho1kfmg1n" class="animable"></polygon><polygon points="160.93 414.43 163.72 414.43 177.07 242.42 170.51 242.42 160.93 414.43" style="fill: rgb(38, 50, 56); transform-origin: 169px 328.425px;" id="elnkcp90ac0to" class="animable"></polygon><path d="M367.93,184.37c-7-3-16.9-11.8-9.09-20.8C363.38,158.33,367.93,184.37,367.93,184.37Z" style="fill: rgb(212, 74, 112); transform-origin: 361.954px 173.622px;" id="elezq0lskew78" class="animable"></path><path d="M379,198.92h-.09a.5.5,0,0,1-.41-.58c.52-3.26-.25-6.58-1.08-10.09-1.62-7-3.31-14.17,5.37-21.18a.5.5,0,0,1,.71.07.51.51,0,0,1-.08.71c-8.18,6.62-6.64,13.2-5,20.16.81,3.46,1.64,7,1.08,10.49A.5.5,0,0,1,379,198.92Z" style="fill: rgb(212, 74, 112); transform-origin: 379.859px 182.937px;" id="elie5l5isngp" class="animable"></path><g id="elluieyf55q9e"><path d="M379,198.92h-.09a.5.5,0,0,1-.41-.58c.52-3.26-.25-6.58-1.08-10.09-1.62-7-3.31-14.17,5.37-21.18a.5.5,0,0,1,.71.07.51.51,0,0,1-.08.71c-8.18,6.62-6.64,13.2-5,20.16.81,3.46,1.64,7,1.08,10.49A.5.5,0,0,1,379,198.92Z" style="opacity: 0.2; transform-origin: 379.859px 182.937px;" class="animable"></path></g><path d="M385.52,198.35a.51.51,0,0,1-.48-.67c2.1-6.13,4.11-11.28,6-15.41a92.11,92.11,0,0,1-7.15-15.45.52.52,0,0,1,.3-.65.5.5,0,0,1,.65.3,94.34,94.34,0,0,0,6.71,14.7c3.67-7.77,6.85-11.59,9.4-11.18,2,.31,3.19,3.07,3.25,7.37.07,5.24-1.62,10.88-5,11.52-2.26.42-4.78-1.48-7.51-5.59C390,187,388.13,191.79,386,198A.51.51,0,0,1,385.52,198.35Zm6.66-16.15c3.44,5.4,5.74,5.9,6.82,5.69,2.7-.51,4.25-5.75,4.18-10.51-.05-3.6-1-6.17-2.4-6.39C399.88,170.84,397.11,171.54,392.18,182.2Z" style="fill: rgb(212, 74, 112); transform-origin: 394.032px 182.243px;" id="elre3bdbsuyc" class="animable"></path><g id="elpsur4amkkle"><path d="M385.52,198.35a.51.51,0,0,1-.48-.67c2.1-6.13,4.11-11.28,6-15.41a92.11,92.11,0,0,1-7.15-15.45.52.52,0,0,1,.3-.65.5.5,0,0,1,.65.3,94.34,94.34,0,0,0,6.71,14.7c3.67-7.77,6.85-11.59,9.4-11.18,2,.31,3.19,3.07,3.25,7.37.07,5.24-1.62,10.88-5,11.52-2.26.42-4.78-1.48-7.51-5.59C390,187,388.13,191.79,386,198A.51.51,0,0,1,385.52,198.35Zm6.66-16.15c3.44,5.4,5.74,5.9,6.82,5.69,2.7-.51,4.25-5.75,4.18-10.51-.05-3.6-1-6.17-2.4-6.39C399.88,170.84,397.11,171.54,392.18,182.2Z" style="fill: rgb(255, 255, 255); opacity: 0.2; transform-origin: 394.032px 182.243px;" class="animable"></path></g><path d="M377.38,195.08a.5.5,0,0,1-.44-.27,11.58,11.58,0,0,0-3.31-3.14c-3.55-2.67-8.42-6.32-6.09-15.24a.51.51,0,0,1,1,.26c-2.16,8.26,2.21,11.54,5.72,14.17a11.86,11.86,0,0,1,3.59,3.48.5.5,0,0,1-.21.68A.53.53,0,0,1,377.38,195.08Z" style="fill: rgb(212, 74, 112); transform-origin: 372.421px 185.562px;" id="el79z0zkjvtky" class="animable"></path><path d="M390.47,195.6a.51.51,0,0,1-.28-.93c3.34-2.19,2.6-7.11,1.81-12.33-1.08-7.1-2.3-15.15,7.31-17.19a.51.51,0,0,1,.21,1c-8.68,1.84-7.63,8.75-6.52,16.05.84,5.55,1.63,10.78-2.25,13.32A.49.49,0,0,1,390.47,195.6Z" style="fill: rgb(212, 74, 112); transform-origin: 394.948px 180.37px;" id="el30p7lr178nw" class="animable"></path><path d="M379.93,190.79c11.52,0,20.86,1,20.86,2.13,0,6.72-4.07,18.49-5.6,31.6a10.43,10.43,0,0,1-10.35,9.23H375a10.43,10.43,0,0,1-10.35-9.23c-1.53-13.11-5.6-24.88-5.6-31.6C359.08,191.74,368.42,190.79,379.93,190.79Z" style="fill: rgb(212, 74, 112); transform-origin: 379.92px 212.27px;" id="eljqicazjhxdl" class="animable"></path><g id="el0khcgmbu08b"><path d="M379.93,190.79c11.52,0,20.86,1,20.86,2.13,0,6.72-4.07,18.49-5.6,31.6a10.43,10.43,0,0,1-10.35,9.23H375a10.43,10.43,0,0,1-10.35-9.23c-1.53-13.11-5.6-24.88-5.6-31.6C359.08,191.74,368.42,190.79,379.93,190.79Z" style="fill: rgb(255, 255, 255); opacity: 0.4; transform-origin: 379.92px 212.27px;" class="animable"></path></g><path d="M397.72,166c8.34,1.83,30.84-3.11,21.9-13.07C414.42,147.08,397.72,166,397.72,166Z" style="fill: rgb(212, 74, 112); transform-origin: 409.702px 159.091px;" id="elyf8dx3hgdhb" class="animable"></path><path d="M381.75,168.49c8.26-2.16,26.07-16.76,13.58-21.58C388.07,144.1,381.75,168.49,381.75,168.49Z" style="fill: rgb(212, 74, 112); transform-origin: 390.695px 157.587px;" id="elxu0dlmn02on" class="animable"></path><g id="elik5ukt65fg"><path d="M381.75,168.49c8.26-2.16,26.07-16.76,13.58-21.58C388.07,144.1,381.75,168.49,381.75,168.49Z" style="opacity: 0.2; transform-origin: 390.695px 157.587px;" class="animable"></path></g><path d="M366.92,181.53c8.46-7.55,18.25-24.63,3-33.74C361,142.49,366.92,181.53,366.92,181.53Z" style="fill: rgb(212, 74, 112); transform-origin: 371.45px 164.413px;" id="elwpuq0ufxf4" class="animable"></path><path d="M385.45,169.51c-8.15-7.3-14.16-31.51-2.83-32.56C392.55,136,385.45,169.51,385.45,169.51Z" style="fill: rgb(212, 74, 112); transform-origin: 382.141px 153.22px;" id="elu5saveg7ree" class="animable"></path><g id="eltc147sulufn"><path d="M385.45,169.51c-8.15-7.3-14.16-31.51-2.83-32.56C392.55,136,385.45,169.51,385.45,169.51Z" style="fill: rgb(255, 255, 255); opacity: 0.2; transform-origin: 382.141px 153.22px;" class="animable"></path></g><polygon points="309.47 183.67 281.93 183.67 290.8 233.75 325.24 233.75 309.47 183.67" style="fill: rgb(212, 74, 112); transform-origin: 303.585px 208.71px;" id="ely1jnemux2em" class="animable"></polygon><g id="elefc0s0r7vd6"><polygon points="309.47 183.67 281.94 183.67 286.86 211.5 317.34 208.63 309.47 183.67" style="opacity: 0.2; transform-origin: 299.64px 197.585px;" class="animable"></polygon></g><g id="elvy6q5jyett"><rect x="194.61" y="118.88" width="17.49" height="1" style="fill: rgb(212, 74, 112); transform-origin: 203.355px 119.38px; transform: rotate(-87.04deg);" class="animable"></rect></g><g id="elr4cheov8xx"><rect x="198.69" y="138.06" width="7.33" height="1" style="fill: rgb(212, 74, 112); transform-origin: 202.355px 138.56px; transform: rotate(-87.03deg);" class="animable"></rect></g><path d="M359.6,203.68H208.8a6.44,6.44,0,0,1-6.48-6.83l4.86-93.4a7.32,7.32,0,0,1,7.19-6.83h150.8a6.45,6.45,0,0,1,6.48,6.83l-4.87,93.4A7.29,7.29,0,0,1,359.6,203.68Z" style="fill: rgb(212, 74, 112); transform-origin: 286.985px 150.15px;" id="eltoh3ep2r6w" class="animable"></path><g id="elqtxn9p05kek"><path d="M209,199.68a2.66,2.66,0,0,1-2.69-2.83l4.86-93.4a3,3,0,0,1,3-2.83H365a2.67,2.67,0,0,1,2.69,2.83l-4.87,93.4a3,3,0,0,1-3,2.83Z" style="fill: rgb(255, 255, 255); opacity: 0.8; transform-origin: 287px 150.15px;" class="animable"></path></g><polygon points="263.49 100.62 260.91 150.15 313.06 150.15 315.64 100.62 263.49 100.62" style="fill: rgb(255, 255, 255); transform-origin: 288.275px 125.385px;" id="elmzj66td10p" class="animable"></polygon><g id="el2poflag89ag"><path d="M365,100.62H315.64l-2.58,49.53h52.16l2.43-46.7A2.67,2.67,0,0,0,365,100.62Z" style="fill: rgb(212, 74, 112); opacity: 0.3; transform-origin: 340.357px 125.385px;" class="animable"></path></g><g id="elb1brdriu6at"><path d="M208.75,150.15l-2.43,46.7a2.66,2.66,0,0,0,2.69,2.83h49.32l2.58-49.53Z" style="fill: rgb(212, 74, 112); opacity: 0.5; transform-origin: 233.612px 174.915px;" class="animable"></path></g><g id="el0zc6iyqsybxj"><polygon points="260.91 150.15 258.33 199.68 310.48 199.68 313.06 150.15 260.91 150.15" style="fill: rgb(255, 255, 255); opacity: 0.6; transform-origin: 285.695px 174.915px;" class="animable"></polygon></g><path d="M313.06,150.15l-2.58,49.53H359.8a3,3,0,0,0,3-2.83l2.44-46.7Z" style="fill: none; transform-origin: 337.86px 174.915px;" id="elm6jd7n1ffu8" class="animable"></path><path d="M227.18,139.43c0-.1,0-.2,0-.29a4.22,4.22,0,0,0,0-.71,1.61,1.61,0,0,0,0-.22.77.77,0,0,0,0-.15,6,6,0,0,1-2.65-1.86v0a14.06,14.06,0,0,0-1.92,4.8,32.34,32.34,0,0,1,4.39-1A4.89,4.89,0,0,0,227.18,139.43Z" style="fill: none; transform-origin: 224.902px 138.6px;" id="elfk5nsfn9pqq" class="animable"></path><path d="M241.88,133.05l-.4.07c-.06.49-.12,1-.16,1.42.21-.39.41-.81.62-1.24A.46.46,0,0,1,241.88,133.05Z" style="fill: none; transform-origin: 241.63px 133.795px;" id="elp8d28a80u9f" class="animable"></path><path d="M223.21,148.17c-2.59-1-2-2.9-.88-4.4a11.63,11.63,0,0,1,0-2.67A26.42,26.42,0,0,0,208.76,150v.14h15c0-.12-.07-.24-.11-.37C223.5,149.22,223.35,148.69,223.21,148.17Z" style="fill: rgb(38, 50, 56); transform-origin: 216.26px 145.62px;" id="elbivkqwe29mi" class="animable"></path><path d="M223.68,142.37c1.34-1.12,2.53-.35,3.32-2.11,0-.07,0-.13,0-.19a32.34,32.34,0,0,0-4.39,1,10.83,10.83,0,0,0-.08,2.46A8.94,8.94,0,0,1,223.68,142.37Z" style="fill: rgb(38, 50, 56); transform-origin: 224.747px 141.8px;" id="ela5oyvlvmsl" class="animable"></path><path d="M260.93,149.67c-1.8-4.22-5.47-6.5-10-8.22a34.51,34.51,0,0,0-9.12-1.89,4.46,4.46,0,0,0,.85,1.32c.1,1.63-1.36,3.33-3.65,4.75a39,39,0,0,0,1.06,4.08c.05.15.09.29.13.44h20.72Z" style="fill: rgb(38, 50, 56); transform-origin: 249.97px 144.855px;" id="elgb838uudh7h" class="animable"></path><path d="M238.77,145.77a22.77,22.77,0,0,1-13,2.93,10.17,10.17,0,0,1-2.29-.43c.13.46.27.94.43,1.44.05.15.08.29.13.44h15.88c0-.12-.06-.24-.1-.37A36.39,36.39,0,0,1,238.77,145.77Z" style="fill: rgb(38, 50, 56); transform-origin: 231.7px 147.96px;" id="elvn33t04n2w9" class="animable"></path><path d="M227.22,139.14a4.22,4.22,0,0,0,0-.71A4.22,4.22,0,0,1,227.22,139.14Z" style="fill: rgb(255, 195, 189); transform-origin: 227.227px 138.785px;" id="elm0j2si6ket" class="animable"></path><path d="M239,145.63c2.29-1.42,3.75-3.12,3.65-4.75a4.46,4.46,0,0,1-.85-1.32,9.85,9.85,0,0,1-.52-4.4c-.19.37-.39.72-.57,1.06C239.16,139,238.11,141,239,145.63Z" style="fill: rgb(255, 195, 189); transform-origin: 240.664px 140.395px;" id="elalyp79602a4" class="animable"></path><path d="M227.24,138.06h0a.77.77,0,0,1,0,.15A.76.76,0,0,0,227.24,138.06Z" style="fill: rgb(255, 195, 189); transform-origin: 227.242px 138.135px;" id="elf4vasqlk4an" class="animable"></path><path d="M241.31,133.13a11.27,11.27,0,0,1-5.33,4.14c-.15.06-.3.1-.45.15-3,2.24-6.44,3.15-8.38,2.23a1.66,1.66,0,0,0,0-.22,4.89,4.89,0,0,1-.14.64c0,.06,0,.12,0,.19-.79,1.76-2,1-3.32,2.11a8.94,8.94,0,0,0-1.11,1.11,23.73,23.73,0,0,0,.92,4.79,10.17,10.17,0,0,0,2.29.43,22.77,22.77,0,0,0,13-2.93c-.94-4.8.14-6.77,1.72-9.67.26-.48.55-1,.83-1.56,0-.46.1-.93.16-1.42Z" style="fill: rgb(255, 195, 189); transform-origin: 232.04px 140.942px;" id="elfsksd9xgrn" class="animable"></path><path d="M223.21,148.17a24.45,24.45,0,0,1-.88-4.4C221.2,145.27,220.62,147.2,223.21,148.17Z" style="fill: rgb(255, 195, 189); transform-origin: 222.291px 145.97px;" id="el76nmptsu5t" class="animable"></path><path d="M223.49,148.27a23.73,23.73,0,0,1-.92-4.79,10.83,10.83,0,0,1,.08-2.46,14.06,14.06,0,0,1,1.92-4.8v0c-.06-.07-.11-.16-.16-.23a.83.83,0,0,0-.07.13,14,14,0,0,0-2,5,11.63,11.63,0,0,0,0,2.67,24.45,24.45,0,0,0,.88,4.4c.14.52.29,1.05.47,1.61,0,.13.07.25.11.37h.26c-.05-.15-.08-.29-.13-.44C223.76,149.21,223.62,148.73,223.49,148.27Z" style="fill: rgb(255, 255, 255); transform-origin: 223.417px 143.08px;" id="el6tskrvgvmhs" class="animable"></path><g id="eluz0rmsn7oh"><path d="M227.25,138.21a1.61,1.61,0,0,1,0,.22A1.61,1.61,0,0,0,227.25,138.21Z" style="opacity: 0.2; transform-origin: 227.252px 138.32px;" class="animable"></path></g><g id="elh5uf1ewqyru"><path d="M227.18,139.43c0-.1,0-.2,0-.29C227.21,139.23,227.2,139.33,227.18,139.43Z" style="opacity: 0.2; transform-origin: 227.189px 139.285px;" class="animable"></path></g><path d="M227.25,138.21a1.61,1.61,0,0,1,0,.22,4.22,4.22,0,0,1,0,.71c0,.09,0,.19,0,.29a1.66,1.66,0,0,1,0,.22c1.94.92,5.36,0,8.38-2.23-3.55,1.24-6.28,1.36-8.29.64A.76.76,0,0,1,227.25,138.21Z" style="fill: rgb(255, 195, 189); transform-origin: 231.44px 138.712px;" id="eltgl2kwqg29i" class="animable"></path><g id="elnmphwno1rh"><path d="M227.25,138.21a1.61,1.61,0,0,1,0,.22,4.22,4.22,0,0,1,0,.71c0,.09,0,.19,0,.29a1.66,1.66,0,0,1,0,.22c1.94.92,5.36,0,8.38-2.23-3.55,1.24-6.28,1.36-8.29.64A.76.76,0,0,1,227.25,138.21Z" style="opacity: 0.2; transform-origin: 231.44px 138.712px;" class="animable"></path></g><path d="M225.6,117.76l-.12.07c-.11.42-.2.85-.27,1.27.28-.61.59-1.2.91-1.78A3.38,3.38,0,0,0,225.6,117.76Z" style="fill: rgb(38, 50, 56); transform-origin: 225.665px 118.21px;" id="el9iiaweowltj" class="animable"></path><path d="M232.8,110.55a2.08,2.08,0,0,1-.62-.7c-2.68.59-5.15,3.51-6.34,6.82a3.7,3.7,0,0,1,.93-.44A14.65,14.65,0,0,1,232.8,110.55Z" style="fill: rgb(38, 50, 56); transform-origin: 229.32px 113.26px;" id="elbjdapa2zlo" class="animable"></path><path d="M227.23,138.06h0c2,.72,4.74.6,8.29-.64.15,0,.3-.09.45-.15a11.27,11.27,0,0,0,5.33-4.14,4,4,0,0,1-.49,0c-2.51.07-2.27-1.92-1-4a17.27,17.27,0,0,1,1.45-2,6.23,6.23,0,0,1,.29-8.07c3.56-3.68,2.14-6.76-.59-7.46-2.39-.6-6.4.2-8.19-1.11a14.65,14.65,0,0,0-6,5.68,3.57,3.57,0,0,1,1.44-.14.35.35,0,0,1,.27.42.37.37,0,0,1-.43.29,2.93,2.93,0,0,0-1.93.52c-.32.58-.63,1.17-.91,1.78a28.13,28.13,0,0,0-2.43,8.89c-.28,3.26.22,6.07,1.64,8,.05.07.1.16.16.23A6,6,0,0,0,227.23,138.06ZM230,121l-1.45,5.15a3.19,3.19,0,0,1-3.37-.79A12.94,12.94,0,0,1,230,121Zm4.29-.06c.38.11.53.68.34,1.27s-.66,1-1,.87-.53-.68-.34-1.27S233.88,120.85,234.26,121Zm-1.21,6.51a5.49,5.49,0,0,1-.93.61,5.93,5.93,0,0,1-4.11.57.2.2,0,0,1-.13-.24.22.22,0,0,1,.25-.12,5.58,5.58,0,0,0,4.67-1.1.21.21,0,0,1,.28,0A.17.17,0,0,1,233.05,127.47Zm3-4.54a2.68,2.68,0,0,1,2.18.79A5.23,5.23,0,0,1,236,122.93Zm.05-.62a3.38,3.38,0,0,1,2.57.23A6.48,6.48,0,0,1,236.06,122.31Zm1.88-4.14a.38.38,0,0,1-.27.45.28.28,0,0,1-.18,0,.32.32,0,0,1-.25-.25,2.68,2.68,0,0,0-1.63-2,.35.35,0,0,1-.22-.45.38.38,0,0,1,.46-.24A3.37,3.37,0,0,1,237.94,118.17Zm-11.45,1.72c.2-.59.66-1,1-.87s.53.68.34,1.27-.66,1-1,.87S226.3,120.48,226.49,119.89Z" style="fill: rgb(255, 195, 189); transform-origin: 233.189px 124.496px;" id="elud7iq9d8loq" class="animable"></path><path d="M232.8,110.55c1.79,1.31,5.8.51,8.19,1.11,2.73.7,4.15,3.78.59,7.46a6.23,6.23,0,0,0-.29,8.07c1.07-1.25,2.4-2.2,3.87-1.6a2.79,2.79,0,0,1,1.8,2.31c3.42-2.24,6.84-6.63,3.49-8.34a8.52,8.52,0,0,1-1.27-.36,3.38,3.38,0,0,0,1.37,0c2.91-2.61-1-7.44-4.35-9.32,1.7-.45.74-1.77.74-1.77s.3,1.64-4.15-.69-11.84.1-10.62,2.38h0A2.08,2.08,0,0,0,232.8,110.55Z" style="fill: rgb(38, 50, 56); transform-origin: 241.929px 117.187px;" id="el7i4ezf91nu2" class="animable"></path><path d="M249.18,119.2a8.52,8.52,0,0,0,1.27.36c2.73.51,2.06-1.69,2.06-1.69a2.82,2.82,0,0,1-2,1.37A3.38,3.38,0,0,1,249.18,119.2Z" style="fill: rgb(38, 50, 56); transform-origin: 250.881px 118.753px;" id="elmdg4fzq2c2o" class="animable"></path><path d="M232.8,127.19a5.58,5.58,0,0,1-4.67,1.1.22.22,0,0,0-.25.12.2.2,0,0,0,.13.24,5.93,5.93,0,0,0,4.11-.57,5.49,5.49,0,0,0,.93-.61.17.17,0,0,0,0-.26A.21.21,0,0,0,232.8,127.19Z" style="fill: rgb(38, 50, 56); transform-origin: 230.492px 127.975px;" id="ellr92qn6cal" class="animable"></path><path d="M236.06,122.31a6.48,6.48,0,0,0,2.57.23A3.38,3.38,0,0,0,236.06,122.31Z" style="fill: rgb(255, 195, 189); transform-origin: 237.345px 122.368px;" id="el4q44ou04ti2" class="animable"></path><g id="eldobutlutfa"><path d="M236.06,122.31a6.48,6.48,0,0,0,2.57.23A3.38,3.38,0,0,0,236.06,122.31Z" style="opacity: 0.2; transform-origin: 237.345px 122.368px;" class="animable"></path></g><path d="M236,122.93a5.23,5.23,0,0,0,2.18.79A2.68,2.68,0,0,0,236,122.93Z" style="fill: rgb(255, 195, 189); transform-origin: 237.09px 123.318px;" id="elbu52bgj16s" class="animable"></path><g id="el25zwuu5fe7e"><path d="M236,122.93a5.23,5.23,0,0,0,2.18.79A2.68,2.68,0,0,0,236,122.93Z" style="opacity: 0.2; transform-origin: 237.09px 123.318px;" class="animable"></path></g><path d="M245.16,125.59c-1.47-.6-2.8.35-3.87,1.6a17.27,17.27,0,0,0-1.45,2c-1.29,2.06-1.53,4.05,1,4a4,4,0,0,0,.49,0h.17l.4-.07a3.88,3.88,0,0,1,.48-1.79,2.31,2.31,0,0,1,.18-.35,1.21,1.21,0,0,1-.24-1.53,1.29,1.29,0,0,1,1.54-.82,1.18,1.18,0,0,1,.37,1.64,1.57,1.57,0,0,1-.35.48,5.81,5.81,0,0,1-.39,1.06,5.21,5.21,0,0,1-.63,1.06,7.45,7.45,0,0,0,3-1.9,3.73,3.73,0,0,0,1.07-3A2.79,2.79,0,0,0,245.16,125.59Z" style="fill: rgb(255, 195, 189); transform-origin: 242.921px 129.301px;" id="eli2a83yfgpp" class="animable"></path><path d="M243.8,129.62c.2.09.21.5.06,1.06a1.57,1.57,0,0,0,.35-.48,1.18,1.18,0,0,0-.37-1.64,1.29,1.29,0,0,0-1.54.82,1.21,1.21,0,0,0,.24,1.53C243,130.06,243.53,129.5,243.8,129.62Z" style="fill: rgb(255, 255, 255); transform-origin: 243.263px 129.714px;" id="el8olovnwrngu" class="animable"></path><path d="M243.86,130.68c.15-.56.14-1-.06-1.06s-.81.44-1.26,1.29a2.31,2.31,0,0,0-.18.35,3.88,3.88,0,0,0-.48,1.79.46.46,0,0,0,.06.25c.09-.2.18-.4.28-.6a.12.12,0,0,1,.16-.07.14.14,0,0,1,.07.17l-.28.58a1.48,1.48,0,0,0,.67-.58,5.21,5.21,0,0,0,.63-1.06A5.81,5.81,0,0,0,243.86,130.68Z" style="fill: rgb(255, 255, 255); transform-origin: 242.921px 131.498px;" id="el7t28qt8jzvb" class="animable"></path><path d="M239,145.63c-.89-4.64.16-6.59,1.71-9.41.18-.34.38-.69.57-1.06.29-.54.59-1.13.89-1.78l.28-.58a.14.14,0,0,0-.07-.17.12.12,0,0,0-.16.07c-.1.2-.19.4-.28.6-.21.43-.41.85-.62,1.24-.28.56-.57,1.08-.83,1.56-1.58,2.9-2.66,4.87-1.72,9.67a36.39,36.39,0,0,0,1.06,4c0,.13.06.25.1.37h.26c0-.15-.08-.29-.13-.44A39,39,0,0,1,239,145.63Z" style="fill: rgb(255, 255, 255); transform-origin: 240.439px 141.38px;" id="el6mqal5zpu6s" class="animable"></path><path d="M233.56,123.1c.38.11.84-.28,1-.87s0-1.16-.34-1.27-.85.28-1,.87S233.18,123,233.56,123.1Z" style="fill: rgb(38, 50, 56); transform-origin: 233.889px 122.03px;" id="elh7jlol5lojp" class="animable"></path><path d="M226.83,121.16c.38.11.84-.28,1-.87s0-1.16-.34-1.27-.84.28-1,.87S226.45,121.05,226.83,121.16Z" style="fill: rgb(38, 50, 56); transform-origin: 227.157px 120.09px;" id="elijm6n32g9cl" class="animable"></path><path d="M228.52,126.17,230,121a12.94,12.94,0,0,0-4.82,4.36A3.19,3.19,0,0,0,228.52,126.17Z" style="fill: rgb(237, 132, 126); transform-origin: 227.59px 123.672px;" id="elrv2cux8w8wr" class="animable"></path><path d="M235.39,116a.35.35,0,0,0,.22.45,2.68,2.68,0,0,1,1.63,2,.32.32,0,0,0,.25.25.28.28,0,0,0,.18,0,.38.38,0,0,0,.27-.45,3.37,3.37,0,0,0-2.09-2.44A.38.38,0,0,0,235.39,116Z" style="fill: rgb(38, 50, 56); transform-origin: 236.659px 117.253px;" id="elyfhwch8v6h" class="animable"></path><path d="M226.12,117.32a2.93,2.93,0,0,1,1.93-.52.37.37,0,0,0,.43-.29.35.35,0,0,0-.27-.42,3.57,3.57,0,0,0-1.44.14,3.7,3.7,0,0,0-.93.44,4.3,4.3,0,0,0-.75.59.36.36,0,0,0,0,.51.35.35,0,0,0,.39.06l.12-.07A3.38,3.38,0,0,1,226.12,117.32Z" style="fill: rgb(38, 50, 56); transform-origin: 226.736px 116.967px;" id="elsgudmy818ab" class="animable"></path><path d="M285.4,137.19a8.3,8.3,0,0,0-.19-1c0-.15-.07-.29-.11-.44s-.1-.36-.16-.55a8.43,8.43,0,0,1-5.75-2.37c.33,3.41-1.35,6-4.05,5.84,1,2.33,4,3.76,9.06,3.07A5.1,5.1,0,0,0,285.4,137.19Z" style="fill: rgb(38, 50, 56); transform-origin: 280.332px 137.372px;" id="el9kaw67top8" class="animable"></path><path d="M276.82,126a27.35,27.35,0,0,1,2.61-9.18,2,2,0,0,1-.3-.58l.45.28a22.53,22.53,0,0,1,1.85-3.07,3,3,0,0,0-1.45.58.43.43,0,0,1-.27.06.36.36,0,0,1-.21-.13.36.36,0,0,1,.09-.49,3.66,3.66,0,0,1,2.38-.72,14.6,14.6,0,0,1,2.28-2.3,2.44,2.44,0,0,0-1.19.26c5.45-5,13-4.16,18.42,1.88l-.37.27c3.36,2-.13,22.85-5.67,23.71a6.58,6.58,0,0,1-2.92-.19,10.24,10.24,0,0,0,1.6,4.64,6.69,6.69,0,0,0,2.88-3.41c2.11,1.24,6.06,1.33,8.58-2.75-3,1.06-6.65-1.38-3.73-6,4.35-6.81,4.47-14.21.89-17.14,0,0,1.25-7.23-7.9-7.45a20.11,20.11,0,0,0-12.61,4.34c-5.49-.7-7.54,8.88-7,15.44.41,5.11-1.84,4.75-2.48,4.15-.31,3.12,2.17,4.05,5.4,3.29A8.64,8.64,0,0,1,276.82,126Z" style="fill: rgb(38, 50, 56); transform-origin: 289.152px 122.645px;" id="elrno01wewglk" class="animable"></path><path d="M298.64,141.76c-1.18,0-2.44.06-3.72.14a35.42,35.42,0,0,0-3.39,1.86,73.2,73.2,0,0,0-6.76,6.39h21l0-.2A7,7,0,0,0,298.64,141.76Z" style="fill: rgb(212, 74, 112); transform-origin: 295.321px 145.953px;" id="elxadxsu5cqk" class="animable"></path><g id="eljpbhcyauikn"><path d="M298.64,141.76c-1.18,0-2.44.06-3.72.14a35.42,35.42,0,0,0-3.39,1.86,73.2,73.2,0,0,0-6.76,6.39h21l0-.2A7,7,0,0,0,298.64,141.76Z" style="opacity: 0.3; transform-origin: 295.321px 145.953px;" class="animable"></path></g><path d="M281.48,143.4c-1.44.29-2.93.64-4.35,1a10.94,10.94,0,0,0-7.08,5.75h7.45a8.87,8.87,0,0,1,2.08-4.88A6.25,6.25,0,0,1,281.48,143.4Z" style="fill: rgb(212, 74, 112); transform-origin: 275.765px 146.775px;" id="elwje1yl29khl" class="animable"></path><g id="eld5zoaefq1m7"><path d="M281.48,143.4c-1.44.29-2.93.64-4.35,1a10.94,10.94,0,0,0-7.08,5.75h7.45a8.87,8.87,0,0,1,2.08-4.88A6.25,6.25,0,0,1,281.48,143.4Z" style="opacity: 0.3; transform-origin: 275.765px 146.775px;" class="animable"></path></g><path d="M279.58,145.27a8.87,8.87,0,0,0-2.08,4.88h.73A8.5,8.5,0,0,1,279.58,145.27Z" style="fill: rgb(255, 255, 255); transform-origin: 278.54px 147.71px;" id="el8rt74t63p1o" class="animable"></path><path d="M291.53,143.76a42.61,42.61,0,0,0-8.13,6.39h1.37A73.2,73.2,0,0,1,291.53,143.76Z" style="fill: rgb(255, 255, 255); transform-origin: 287.465px 146.955px;" id="elgffwjmnzztf" class="animable"></path><path d="M285.21,136.22c0-.15-.07-.29-.11-.44C285.14,135.93,285.18,136.07,285.21,136.22Z" style="fill: rgb(255, 181, 115); transform-origin: 285.155px 136px;" id="elatcjiyfy1el" class="animable"></path><path d="M294.92,141.9a4.69,4.69,0,0,1-.8-.86,10.24,10.24,0,0,1-1.6-4.64,9.18,9.18,0,0,1-3.43-1.94l-.11,0a7,7,0,0,1-3.57,2.75s0,0,0-.06a5.1,5.1,0,0,1-1.2,4.58,6.89,6.89,0,0,1-2.72,1.63,6.25,6.25,0,0,0-1.9,1.87,8.5,8.5,0,0,0-1.35,4.88h5.17a42.61,42.61,0,0,1,8.13-6.39A35.42,35.42,0,0,1,294.92,141.9Z" style="fill: rgb(255, 181, 115); transform-origin: 286.578px 142.285px;" id="ela6ul4eg62p7" class="animable"></path><path d="M284.94,135.23c.06.19.11.37.16.55l-.15-.55Z" style="fill: rgb(38, 50, 56); transform-origin: 285.02px 135.505px;" id="el4key5qe9lfu" class="animable"></path><g id="elvmjijnydnta"><path d="M284.94,135.23c.06.19.11.37.16.55l-.15-.55Z" style="opacity: 0.2; transform-origin: 285.02px 135.505px;" class="animable"></path></g><path d="M285.4,137.19c0-.32-.11-.65-.19-1A8.3,8.3,0,0,1,285.4,137.19Z" style="fill: rgb(38, 50, 56); transform-origin: 285.305px 136.69px;" id="elzem2l1k361f" class="animable"></path><g id="el6pnloc2p46j"><path d="M285.4,137.19c0-.32-.11-.65-.19-1A8.3,8.3,0,0,1,285.4,137.19Z" style="opacity: 0.2; transform-origin: 285.305px 136.69px;" class="animable"></path></g><path d="M285,135.23l.15.55c0,.15.08.29.11.44.08.32.14.65.19,1,0,0,0,0,0,.06A7,7,0,0,0,289,134.5,10.14,10.14,0,0,1,285,135.23Z" style="fill: rgb(255, 181, 115); transform-origin: 287px 135.89px;" id="elcik73vicvmb" class="animable"></path><g id="ely0nr84277zr"><path d="M285,135.23l.15.55c0,.15.08.29.11.44.08.32.14.65.19,1,0,0,0,0,0,.06A7,7,0,0,0,289,134.5,10.14,10.14,0,0,1,285,135.23Z" style="opacity: 0.2; transform-origin: 287px 135.89px;" class="animable"></path></g><path d="M285,135.23a10.14,10.14,0,0,0,4-.73l.11,0a15.19,15.19,0,0,1-3-3.63s2.91,1.47,4.84-2c-1.3-2.67.76-6.44,2.75-7.31a8.48,8.48,0,0,1,1.32-6.85c-4.38-.47-8-4.15-10.72-4.2a14.6,14.6,0,0,0-2.28,2.3,3.38,3.38,0,0,1,.75.13.33.33,0,0,1,.18.45.35.35,0,0,1-.45.2,2.63,2.63,0,0,0-1-.08,22.53,22.53,0,0,0-1.85,3.07l.77.48h0a1,1,0,0,1,.2,1.13c-.19.56-.63.94-1,.84s-.51-.64-.33-1.21a1.42,1.42,0,0,1,.52-.72.73.73,0,0,1-.29-.23,27.35,27.35,0,0,0-2.61,9.18,8.64,8.64,0,0,0,1.32,5.53,7.94,7.94,0,0,0,1.05,1.31,8.43,8.43,0,0,0,5.75,2.37Zm3.52-19.82a3.21,3.21,0,0,1,2.33,2,.36.36,0,0,1-.2.46.31.31,0,0,1-.25,0,.32.32,0,0,1-.2-.18,2.56,2.56,0,0,0-1.82-1.61.33.33,0,0,1-.27-.39A.37.37,0,0,1,288.47,115.41ZM286,118.05l1.22.76h0a1,1,0,0,1,.2,1.13c-.18.57-.63.94-1,.84s-.52-.64-.33-1.21a1.36,1.36,0,0,1,.51-.72A1.44,1.44,0,0,1,286,118.05Zm-6.73,4.66a17.17,17.17,0,0,0,3.17-3.08l-1.29,4A2.41,2.41,0,0,1,279.31,122.71Zm2.74,4.09a.18.18,0,0,1-.14-.23.21.21,0,0,1,.25-.15,5.47,5.47,0,0,0,4.73-1,.19.19,0,1,1,.26.29,5.82,5.82,0,0,1-4,1.29A5.67,5.67,0,0,1,282.05,126.8Z" style="fill: rgb(255, 181, 115); transform-origin: 285.943px 122.885px;" id="elaxfqvkwln6" class="animable"></path><path d="M287.17,125.4a.2.2,0,0,0-.28,0,5.47,5.47,0,0,1-4.73,1,.21.21,0,0,0-.25.15.18.18,0,0,0,.14.23,5.67,5.67,0,0,0,1.1.17,5.82,5.82,0,0,0,4-1.29A.2.2,0,0,0,287.17,125.4Z" style="fill: rgb(38, 50, 56); transform-origin: 284.555px 126.151px;" id="elbzrnb59x5gh" class="animable"></path><path d="M286.12,119.58c-.19.57,0,1.11.33,1.21s.81-.27,1-.84a1,1,0,0,0-.2-1.13.64.64,0,0,1-.61,0A1.36,1.36,0,0,0,286.12,119.58Z" style="fill: rgb(38, 50, 56); transform-origin: 286.794px 119.813px;" id="elpqtnpa0lms" class="animable"></path><path d="M279.72,117.07a1.42,1.42,0,0,0-.52.72c-.18.57,0,1.11.33,1.21s.81-.28,1-.84a1,1,0,0,0-.2-1.13A.64.64,0,0,1,279.72,117.07Z" style="fill: rgb(38, 50, 56); transform-origin: 279.876px 118.023px;" id="el2qpr303t1pq" class="animable"></path><path d="M279.43,116.84a.73.73,0,0,0,.29.23.64.64,0,0,0,.61,0h0l-.77-.48-.45-.28A2,2,0,0,0,279.43,116.84Z" style="fill: rgb(38, 50, 56); transform-origin: 279.72px 116.729px;" id="elkuku6hcgs38" class="animable"></path><path d="M279.31,122.71a2.41,2.41,0,0,0,1.88.92l1.29-4A17.17,17.17,0,0,1,279.31,122.71Z" style="fill: rgb(237, 137, 62); transform-origin: 280.895px 121.63px;" id="elu963j5zxjsq" class="animable"></path><path d="M295.44,136.59c5.54-.86,9-21.69,5.67-23.71a8.59,8.59,0,0,1-6.14,1.79,8.48,8.48,0,0,0-1.32,6.85c-2,.87-4,4.64-2.75,7.31-1.93,3.47-4.84,2-4.84,2a15.19,15.19,0,0,0,3,3.63,9.18,9.18,0,0,0,3.43,1.94A6.58,6.58,0,0,0,295.44,136.59Z" style="fill: rgb(38, 50, 56); transform-origin: 294.238px 124.778px;" id="el553uuvfmpkd" class="animable"></path><path d="M301.11,112.88l.37-.27c-5.42-6-13-6.88-18.42-1.88a2.44,2.44,0,0,1,1.19-.26c2.71,0,6.34,3.73,10.72,4.2A8.59,8.59,0,0,0,301.11,112.88Z" style="fill: rgb(38, 50, 56); transform-origin: 292.27px 111.096px;" id="eliuoh4ydtajo" class="animable"></path><path d="M288.33,116.09a2.56,2.56,0,0,1,1.82,1.61.32.32,0,0,0,.2.18.31.31,0,0,0,.25,0,.36.36,0,0,0,.2-.46,3.21,3.21,0,0,0-2.33-2,.37.37,0,0,0-.41.29A.33.33,0,0,0,288.33,116.09Z" style="fill: rgb(38, 50, 56); transform-origin: 289.439px 116.662px;" id="elkfa7fayhfpo" class="animable"></path><path d="M279.59,113.49a.36.36,0,0,0-.09.49.36.36,0,0,0,.21.13.43.43,0,0,0,.27-.06,3,3,0,0,1,1.45-.58,2.63,2.63,0,0,1,1,.08.35.35,0,0,0,.45-.2.33.33,0,0,0-.18-.45,3.38,3.38,0,0,0-.75-.13A3.66,3.66,0,0,0,279.59,113.49Z" style="fill: rgb(38, 50, 56); transform-origin: 281.176px 113.439px;" id="elgo60k2px8yq" class="animable"></path><path d="M287.24,118.82h0l-1.22-.76a1.44,1.44,0,0,0,.59.81A.64.64,0,0,0,287.24,118.82Z" style="fill: rgb(38, 50, 56); transform-origin: 286.63px 118.495px;" id="el15wln443rth" class="animable"></path><path d="M328.74,123.62a.33.33,0,0,1-.14-.1.31.31,0,0,1,.07-.43,2.2,2.2,0,0,1,.39-.26,15.39,15.39,0,0,1,1.37-2.93,4.33,4.33,0,0,1-1.56-1.51,4.51,4.51,0,0,0-.73,3.91,18.1,18.1,0,0,1,.06,3.77,20.36,20.36,0,0,1,.6-2.45Z" style="fill: rgb(38, 50, 56); transform-origin: 329.202px 122.23px;" id="elnstdefhoovm" class="animable"></path><path d="M351.41,146c-1.49,0-3,0-4.61,0a7.63,7.63,0,0,1-1.45,4.13h11.59C355.75,147.85,353.81,146.09,351.41,146Z" style="fill: rgb(212, 74, 112); transform-origin: 351.145px 148.065px;" id="elpq1sg9a8yk" class="animable"></path><path d="M330.64,147.64a18.08,18.08,0,0,0-6.29,2.51h4.5A7,7,0,0,1,330.64,147.64Z" style="fill: rgb(212, 74, 112); transform-origin: 327.495px 148.895px;" id="elfiptzcr7nou" class="animable"></path><path d="M346.8,146c-1.26-.79-1.95-.46-1.95-.46l0,0a2.34,2.34,0,0,1-.48,2.67,20.16,20.16,0,0,1-2.21,2h3.21A7.63,7.63,0,0,0,346.8,146Z" style="fill: rgb(255, 255, 255); transform-origin: 344.48px 147.841px;" id="eli221oc1wt8" class="animable"></path><path d="M332.28,147.46a7.75,7.75,0,0,0,1-.57,6.88,6.88,0,0,0-2.63.74h0a7,7,0,0,0-1.79,2.51h1.34l.09-.39A3.74,3.74,0,0,1,332.28,147.46Z" style="fill: rgb(255, 255, 255); transform-origin: 331.07px 148.515px;" id="el8sidey3t8kv" class="animable"></path><path d="M335.32,140.11a.43.43,0,0,1,0,.11.43.43,0,0,0,0-.11Z" style="fill: rgb(255, 139, 123); transform-origin: 335.322px 140.165px;" id="elydom0k8dji" class="animable"></path><path d="M344.83,145.52a2,2,0,0,0-.1-.21c-1.26-2.07-1.64-5.31-1.62-8.48a7.07,7.07,0,0,1-1.44,1.09,20.07,20.07,0,0,1-3,1.41,7.25,7.25,0,0,1-3.18,2h0a5.36,5.36,0,0,1-2.25,5.59,7.75,7.75,0,0,1-1,.57,3.74,3.74,0,0,0-2,2.3l-.09.39h11.95a20.16,20.16,0,0,0,2.21-2A2.34,2.34,0,0,0,344.83,145.52Z" style="fill: rgb(255, 139, 123); transform-origin: 337.594px 143.505px;" id="el63psxxh7fbo" class="animable"></path><g id="elj63kt0o6d"><path d="M335.53,141.3a10.18,10.18,0,0,0-.19-1.08A10.18,10.18,0,0,1,335.53,141.3Z" style="opacity: 0.2; transform-origin: 335.435px 140.76px;" class="animable"></path></g><path d="M338.71,139.33a12,12,0,0,1-3.39.78.43.43,0,0,1,0,.11,10.18,10.18,0,0,1,.19,1.08h0A7.25,7.25,0,0,0,338.71,139.33Z" style="fill: rgb(255, 139, 123); transform-origin: 337.015px 140.315px;" id="el9rat9chjn9s" class="animable"></path><g id="ellatt3nd1oao"><path d="M338.71,139.33a12,12,0,0,1-3.39.78.43.43,0,0,1,0,.11,10.18,10.18,0,0,1,.19,1.08h0A7.25,7.25,0,0,0,338.71,139.33Z" style="opacity: 0.2; transform-origin: 337.015px 140.315px;" class="animable"></path></g><path d="M338.71,139.33a20.07,20.07,0,0,0,3-1.41,7.07,7.07,0,0,0,1.44-1.09,7.84,7.84,0,0,0,2-3.47,5.67,5.67,0,0,1-.62.21,2,2,0,0,1-.82,0,19.59,19.59,0,0,1-8.11,2.2,1.33,1.33,0,0,1-1.44.62c-.71-.13-1.19-.69-1.06-1.24a1.27,1.27,0,0,1,1.52-.78,1.22,1.22,0,0,1,1.05.9,19.26,19.26,0,0,0,7.47-1.95c-.69-.53-.76-1.78-.16-3.05a.36.36,0,0,0,0-.09c-2.18-1.72-.39-4.42.87-5.57,1.47-1.34-1.16-2,.45-4.82-5.94,2.33-5.69-.14-11.3.54a4.07,4.07,0,0,1-2.55-.47,15.39,15.39,0,0,0-1.37,2.93,3.1,3.1,0,0,1,2.35-.43.29.29,0,0,1,.18.38.32.32,0,0,1-.39.21,2.49,2.49,0,0,0-2.17.57.32.32,0,0,1-.23.06,20.36,20.36,0,0,0-.6,2.45,22.89,22.89,0,0,0-.26,7c.6,4.5,3.17,7.29,7.38,7h0A12,12,0,0,0,338.71,139.33Zm-1.22-15.89a2.75,2.75,0,0,1,2.23,1.51.33.33,0,0,1-.14.42.38.38,0,0,1-.15,0,.29.29,0,0,1-.26-.15,2.19,2.19,0,0,0-1.75-1.22.29.29,0,0,1-.27-.32A.33.33,0,0,1,337.49,123.44Zm-2.08,3.29c.1-.52.44-.91.78-.88s.53.49.44,1-.44.91-.78.87S335.32,127.25,335.41,126.73Zm-6.3-.8c.09-.52.44-.91.78-.88s.53.49.44,1-.44.91-.78.87S329,126.45,329.11,125.93Zm-.58,3.81a46.67,46.67,0,0,1,4-3.48L331,130.87S329.07,130.84,328.53,129.74Zm3.29,3.27a.14.14,0,0,1-.1-.19.16.16,0,0,1,.19-.11,4.35,4.35,0,0,0,3.69-.81.14.14,0,0,1,.21,0,.15.15,0,0,1,0,.22,4.55,4.55,0,0,1-3.31,1A5.67,5.67,0,0,1,331.82,133Z" style="fill: rgb(255, 139, 123); transform-origin: 336.477px 129.92px;" id="elg3eg1w7qpo" class="animable"></path><path d="M330.43,119.9a4.07,4.07,0,0,0,2.55.47c5.61-.68,5.36,1.79,11.3-.54-1.61,2.84,1,3.48-.45,4.82-1.26,1.15-3.05,3.85-.87,5.57.82-1.68,2.73-3.88,4.44-3.51a1.82,1.82,0,0,1,1.42,1.42,17,17,0,0,0,1.46-.92c3.12-2.24,5.21-8.4.61-9.36a6.4,6.4,0,0,1-3.49.8,3.93,3.93,0,0,0,2.43-1.42c-.56-4.72-3.65-2.06-6.81-4-2.32-1.38-1.89-3.46-5.75-3-1.48.18-2.51-1.71.74-3-1.77-2-9.79,1.17-10,7.48a6.26,6.26,0,0,0,.89,3.58A4.33,4.33,0,0,0,330.43,119.9Z" style="fill: rgb(38, 50, 56); transform-origin: 340.783px 118.427px;" id="el8mrp123pwz" class="animable"></path><path d="M347.4,118.65a6.4,6.4,0,0,0,3.49-.8c1.26-.84,1.5-2.32-.18-4.45a4.36,4.36,0,0,1-.88,3.83A3.93,3.93,0,0,1,347.4,118.65Z" style="fill: rgb(38, 50, 56); transform-origin: 349.651px 116.03px;" id="elznyw5jcdund" class="animable"></path><path d="M345.63,132.18a8.41,8.41,0,0,1-2,1.43,2,2,0,0,0,.82,0,5.67,5.67,0,0,0,.62-.21,6.72,6.72,0,0,0,2.38-1.59A1.56,1.56,0,0,1,345.63,132.18Z" style="fill: rgb(255, 139, 123); transform-origin: 345.54px 132.731px;" id="el6ibfw8kmzzc" class="animable"></path><path d="M347.4,126.71c-1.71-.37-3.62,1.83-4.44,3.51a.36.36,0,0,1,0,.09c-.6,1.27-.53,2.52.16,3.05a8.52,8.52,0,0,0,2.21-1.54,1.81,1.81,0,0,1,.25-1.9,1.67,1.67,0,0,1,2.17-.73,1.58,1.58,0,0,1,.08,2.2,4.83,4.83,0,0,0,.41-.49,3.48,3.48,0,0,0,.62-2.77A1.82,1.82,0,0,0,347.4,126.71Z" style="fill: rgb(255, 139, 123); transform-origin: 345.741px 130.014px;" id="eli3rcczbk6ml" class="animable"></path><path d="M347.71,129.19a1.67,1.67,0,0,0-2.17.73,1.81,1.81,0,0,0-.25,1.9,5.47,5.47,0,0,0,.4-.46.24.24,0,0,1,.35-.05.24.24,0,0,1,0,.34,4.47,4.47,0,0,1-.46.53,1.56,1.56,0,0,0,1.84-.41,2.51,2.51,0,0,0,.3-.34s0,0,0,0A1.58,1.58,0,0,0,347.71,129.19Z" style="fill: rgb(38, 50, 56); transform-origin: 346.654px 130.68px;" id="el7m9l806ugt9" class="animable"></path><path d="M334.85,135.82a.24.24,0,0,1-.24-.26.26.26,0,0,1,.25-.24c.25,0,.5,0,.75,0a1.22,1.22,0,0,0-1.05-.9,1.27,1.27,0,0,0-1.52.78c-.13.55.35,1.11,1.06,1.24a1.33,1.33,0,0,0,1.44-.62h-.69Z" style="fill: rgb(38, 50, 56); transform-origin: 334.314px 135.425px;" id="ely7liikfl9dl" class="animable"></path><path d="M345.63,132.18a4.47,4.47,0,0,0,.46-.53.24.24,0,0,0,0-.34.24.24,0,0,0-.35.05,5.47,5.47,0,0,1-.4.46,8.52,8.52,0,0,1-2.21,1.54,19.26,19.26,0,0,1-7.47,1.95c-.25,0-.5,0-.75,0a.26.26,0,0,0-.25.24.24.24,0,0,0,.24.26h.69a19.59,19.59,0,0,0,8.11-2.2A8.41,8.41,0,0,0,345.63,132.18Z" style="fill: rgb(38, 50, 56); transform-origin: 340.41px 133.533px;" id="elf0umbatu11q" class="animable"></path><path d="M335.85,127.73c.34,0,.69-.35.78-.87s-.11-1-.44-1-.68.36-.78.88S335.52,127.7,335.85,127.73Z" style="fill: rgb(38, 50, 56); transform-origin: 336.018px 126.795px;" id="el7847r5b64uj" class="animable"></path><path d="M329.55,126.93c.34,0,.68-.36.78-.87s-.11-1-.44-1-.69.36-.78.88S329.22,126.9,329.55,126.93Z" style="fill: rgb(38, 50, 56); transform-origin: 329.722px 125.995px;" id="elky7befajmgi" class="animable"></path><path d="M332.51,126.26a46.67,46.67,0,0,0-4,3.48c.54,1.1,2.45,1.13,2.45,1.13Z" style="fill: rgb(255, 86, 82); transform-origin: 330.51px 128.565px;" id="eltxviunqfxp" class="animable"></path><path d="M335.79,132.12a.15.15,0,0,0,0-.22.14.14,0,0,0-.21,0,4.35,4.35,0,0,1-3.69.81.16.16,0,0,0-.19.11.14.14,0,0,0,.1.19,5.67,5.67,0,0,0,.66.11A4.55,4.55,0,0,0,335.79,132.12Z" style="fill: rgb(38, 50, 56); transform-origin: 333.764px 132.498px;" id="el8tdm7wsaw7m" class="animable"></path><path d="M337.42,124.05a2.19,2.19,0,0,1,1.75,1.22.29.29,0,0,0,.26.15.38.38,0,0,0,.15,0,.33.33,0,0,0,.14-.42,2.75,2.75,0,0,0-2.23-1.51.33.33,0,0,0-.34.29A.29.29,0,0,0,337.42,124.05Z" style="fill: rgb(38, 50, 56); transform-origin: 338.449px 124.459px;" id="el6gu53mo3jgv" class="animable"></path><path d="M328.6,123.52a.33.33,0,0,0,.14.1h.06a.32.32,0,0,0,.23-.06,2.49,2.49,0,0,1,2.17-.57.32.32,0,0,0,.39-.21.29.29,0,0,0-.18-.38,3.1,3.1,0,0,0-2.35.43,2.2,2.2,0,0,0-.39.26A.31.31,0,0,0,328.6,123.52Z" style="fill: rgb(38, 50, 56); transform-origin: 330.076px 122.976px;" id="eld24b1s0fsd5" class="animable"></path><path d="M229.56,189c0-.32-.06-.65-.1-1a.13.13,0,0,1,0-.06c-5.08.57-9.65-2.86-9.67-8.41a26.29,26.29,0,0,1,1.48-8.46l0-.05,0,0a22.2,22.2,0,0,1,2.19-4.55c-.79-1.26-.36-3,1.94-5.5a5.87,5.87,0,0,1,1.06-3,11,11,0,0,0-2.46.57c-6.85,2.52-3.27,12.53-8.31,16.75s-7.05,10.44-5.12,15.38a13.47,13.47,0,0,0,5.3,2.22,24.9,24.9,0,0,1,.38-6.09s.33,4.32,1.82,6.5a46.71,46.71,0,0,0,5.51.45,11.13,11.13,0,0,1,.27-1.64,7.55,7.55,0,0,0,.55,1.66l3.08.06A5,5,0,0,0,229.56,189Z" style="fill: rgb(38, 50, 56); transform-origin: 219.73px 175.9px;" id="elfjjfipqsz1g" class="animable"></path><path d="M242,175.91a2.37,2.37,0,0,1,.54,3.5,5.66,5.66,0,0,1-3.45,2.25,2.42,2.42,0,0,1-.45,0,11.86,11.86,0,0,1-1.75,2.38c-.38,3.47-.35,7.29,1,9.52a37.88,37.88,0,0,0,8.56-1.77c3.93-6.59-1.35-10.13-2.2-13.51-1.13-4.42,1.52-6,2.1-9.75.39-2.47-1.28-5.07-4.84-4.95a9.94,9.94,0,0,1,.45,2.66C244.27,166.82,244.09,171.58,242,175.91Z" style="fill: rgb(38, 50, 56); transform-origin: 242.284px 178.568px;" id="elu1irve0ehqb" class="animable"></path><path d="M212,199.68h.56a6.6,6.6,0,0,1,1.52-2.05A14,14,0,0,0,212,199.68Z" style="fill: rgb(212, 74, 112); transform-origin: 213.04px 198.655px;" id="elrih9b0lid6i" class="animable"></path><path d="M214.46,197.32a2.23,2.23,0,0,0-.24.19,6.13,6.13,0,0,1,.51-.38A2.22,2.22,0,0,0,214.46,197.32Z" style="fill: rgb(212, 74, 112); transform-origin: 214.475px 197.32px;" id="eli4e6jglxax" class="animable"></path><path d="M225.16,194.89c-2.89.35-6,.9-8.35,1.37a5.75,5.75,0,0,0-2.08.87,6.13,6.13,0,0,0-.51.38l-.14.12a6.6,6.6,0,0,0-1.52,2.05h6.86C220.54,196.14,225.16,194.89,225.16,194.89Z" style="fill: rgb(212, 74, 112); transform-origin: 218.86px 197.285px;" id="eln63w0qi0xj" class="animable"></path><path d="M245.43,195c-2-.22-4.35-.41-6.86-.46,0,0,1.11,1.59-.33,5.16h2.91C241.17,196.88,242.24,194.81,245.43,195Z" style="fill: rgb(212, 74, 112); transform-origin: 241.835px 197.12px;" id="elr273znw1we8" class="animable"></path><path d="M225.16,194.89s-4.62,1.25-5.74,4.79h5.64A7.57,7.57,0,0,1,225.16,194.89Z" style="fill: rgb(255, 255, 255); transform-origin: 222.29px 197.285px;" id="eluu3q7wwug6" class="animable"></path><path d="M238.57,194.52a35.87,35.87,0,0,1-6.67,5.16h6.34C239.68,196.11,238.57,194.52,238.57,194.52Z" style="fill: rgb(255, 255, 255); transform-origin: 235.439px 197.1px;" id="elltltn582js" class="animable"></path><path d="M229.45,188a.13.13,0,0,0,0,.06.13.13,0,0,1,0-.06Z" style="fill: rgb(181, 91, 82); transform-origin: 229.448px 188.03px;" id="el46277zkqvsn" class="animable"></path><path d="M238.57,194.52a4.69,4.69,0,0,1-.71-.92c-1.37-2.23-1.4-6-1-9.52a14.61,14.61,0,0,1-2.4,2,13,13,0,0,1-1.27.77,6.92,6.92,0,0,1-3.6,2.24s0,0,0-.06a5,5,0,0,1-2.08,4.86,7.46,7.46,0,0,1-2.32,1,7.57,7.57,0,0,0-.1,4.79h6.84A35.87,35.87,0,0,0,238.57,194.52Z" style="fill: rgb(181, 91, 82); transform-origin: 231.66px 191.88px;" id="els8dhxb5mu0p" class="animable"></path><path d="M229.56,189c0-.33-.05-.65-.1-1C229.5,188.38,229.54,188.71,229.56,189Z" style="fill: rgb(38, 50, 56); transform-origin: 229.51px 188.5px;" id="el6a78n13d25u" class="animable"></path><g id="elqxgrkegnngq"><path d="M229.56,189c0-.33-.05-.65-.1-1C229.5,188.38,229.54,188.71,229.56,189Z" style="opacity: 0.2; transform-origin: 229.51px 188.5px;" class="animable"></path></g><path d="M229.46,188.05c0,.33.08.65.1,1,0,0,0,0,0,.06a6.92,6.92,0,0,0,3.6-2.24,10.85,10.85,0,0,1-3.72,1.14A.13.13,0,0,0,229.46,188.05Z" style="fill: rgb(181, 91, 82); transform-origin: 231.3px 187.99px;" id="eld35kntukcu7" class="animable"></path><g id="el2hx3ttnkpro"><path d="M229.46,188.05c0,.33.08.65.1,1,0,0,0,0,0,.06a6.92,6.92,0,0,0,3.6-2.24,10.85,10.85,0,0,1-3.72,1.14A.13.13,0,0,0,229.46,188.05Z" style="opacity: 0.2; transform-origin: 231.3px 187.99px;" class="animable"></path></g><path d="M237.24,178.73a6.41,6.41,0,0,1,1.61-2.2c-1.95-1.69-2.66-5.05-.45-8.09-6.34,1-13.29.72-14.94-1.9a22.2,22.2,0,0,0-2.19,4.55l1.25.63h0a1,1,0,0,1,.3,1.1c-.14.57-.55,1-.92.92s-.57-.59-.44-1.17a1.44,1.44,0,0,1,.45-.76,1.34,1.34,0,0,1-.63-.7,26.29,26.29,0,0,0-1.48,8.46c0,5.55,4.59,9,9.67,8.41h0a10.85,10.85,0,0,0,3.72-1.14,13,13,0,0,0,1.27-.77,14.61,14.61,0,0,0,2.4-2,11.86,11.86,0,0,0,1.75-2.38C237.11,181.71,236.59,180.22,237.24,178.73Zm-6.41-8a3.29,3.29,0,0,1,2.76,1.36.36.36,0,0,1-.33.56.34.34,0,0,1-.24-.13,2.6,2.6,0,0,0-2.17-1.1.33.33,0,0,1-.35-.31A.37.37,0,0,1,230.83,170.72Zm-1,2.31h0a1,1,0,0,1,.3,1.09c-.13.58-.54,1-.91.92s-.57-.59-.44-1.16a1.4,1.4,0,0,1,.45-.76,1.45,1.45,0,0,1-.65-.75Zm-7.66-2.7a.34.34,0,0,1-.28,0,.34.34,0,0,1,0-.64,3.37,3.37,0,0,1,3.14,0,.33.33,0,0,1,.09.47.37.37,0,0,1-.48.12A2.66,2.66,0,0,0,222.18,170.33Zm-.11,6.83a17,17,0,0,0,2.89-3.3l-1,4.06A2.4,2.4,0,0,1,222.07,177.16Zm1.13,2.74a63.76,63.76,0,0,1,8.38-1.48s.36,2-2.78,2.71S224.14,181.07,223.2,179.9Z" style="fill: rgb(181, 91, 82); transform-origin: 229.325px 177.293px;" id="elgauqgxdgvp" class="animable"></path><path d="M223.46,166.54c1.65,2.62,8.6,2.9,14.94,1.9a9.89,9.89,0,0,1,2-2,2.62,2.62,0,0,1,1.55-.14,9.94,9.94,0,0,0-.45-2.66c-2.22-7.13-11.77-10-15-5.59a5.87,5.87,0,0,0-1.06,3C223.1,163.49,222.67,165.28,223.46,166.54Z" style="fill: rgb(38, 50, 56); transform-origin: 232.524px 162.464px;" id="elq0tmyaa5dx9" class="animable"></path><path d="M238.85,176.53a2.9,2.9,0,0,1,2.48-.85,2.41,2.41,0,0,1,.62.23c2.14-4.33,2.32-9.09,0-9.63a2.62,2.62,0,0,0-1.55.14,9.89,9.89,0,0,0-2,2C236.19,171.48,236.9,174.84,238.85,176.53Z" style="fill: rgb(38, 50, 56); transform-origin: 240.329px 171.376px;" id="elgys7jeitzfg" class="animable"></path><path d="M231.58,178.42a63.76,63.76,0,0,0-8.38,1.48c.94,1.17,2.46,1.95,5.6,1.23S231.58,178.42,231.58,178.42Z" style="fill: rgb(255, 255, 255); transform-origin: 227.396px 179.914px;" id="el7wz3r1v7o7x" class="animable"></path><path d="M229.21,173.13a1.4,1.4,0,0,0-.45.76c-.13.57.06,1.1.44,1.16s.78-.34.91-.92a1,1,0,0,0-.3-1.09A.65.65,0,0,1,229.21,173.13Z" style="fill: rgb(38, 50, 56); transform-origin: 229.442px 174.048px;" id="eln2enlwlmtn9" class="animable"></path><path d="M221.89,171.82a1.44,1.44,0,0,0-.45.76c-.13.58.06,1.1.44,1.17s.78-.35.92-.92a1,1,0,0,0-.3-1.1A.64.64,0,0,1,221.89,171.82Z" style="fill: rgb(38, 50, 56); transform-origin: 222.128px 172.744px;" id="elapi8vae0bsk" class="animable"></path><path d="M221.89,171.82a.64.64,0,0,0,.61-.09h0l-1.25-.63,0,0,0,.05A1.34,1.34,0,0,0,221.89,171.82Z" style="fill: rgb(38, 50, 56); transform-origin: 221.875px 171.48px;" id="eliifaez0fjd9" class="animable"></path><path d="M224,177.92l1-4.06a17,17,0,0,1-2.89,3.3A2.4,2.4,0,0,0,224,177.92Z" style="fill: rgb(160, 39, 36); transform-origin: 223.555px 175.892px;" id="elia604dly60h" class="animable"></path><path d="M238.85,176.53a6.41,6.41,0,0,0-1.61,2.2c-.65,1.49-.13,3,1.35,3a2.42,2.42,0,0,0,.45,0,5.66,5.66,0,0,0,3.45-2.25,2.37,2.37,0,0,0-.54-3.5,2.41,2.41,0,0,0-.62-.23A2.9,2.9,0,0,0,238.85,176.53Z" style="fill: rgb(181, 91, 82); transform-origin: 239.999px 178.727px;" id="el9l9ty70ocdc" class="animable"></path><path d="M230.85,171.41a2.6,2.6,0,0,1,2.17,1.1.34.34,0,0,0,.24.13.36.36,0,0,0,.33-.56,3.29,3.29,0,0,0-2.76-1.36.37.37,0,0,0-.33.38A.33.33,0,0,0,230.85,171.41Z" style="fill: rgb(38, 50, 56); transform-origin: 232.076px 171.68px;" id="elnegqbvlbxkd" class="animable"></path><path d="M224.66,170.31a.37.37,0,0,0,.48-.12.33.33,0,0,0-.09-.47,3.37,3.37,0,0,0-3.14,0,.34.34,0,0,0,0,.64.34.34,0,0,0,.28,0A2.66,2.66,0,0,1,224.66,170.31Z" style="fill: rgb(38, 50, 56); transform-origin: 223.443px 169.861px;" id="ellivmk3jemkk" class="animable"></path><path d="M229.21,173.13a.65.65,0,0,0,.6-.09h0l-1.28-.65A1.45,1.45,0,0,0,229.21,173.13Z" style="fill: rgb(38, 50, 56); transform-origin: 229.17px 172.778px;" id="el49or9x9d93j" class="animable"></path><path d="M245.47,195s0,0,0,0c-3.19-.17-4.26,1.9-4.28,4.7h11.78A8.29,8.29,0,0,0,245.47,195Z" style="fill: rgb(212, 74, 112); transform-origin: 247.08px 197.345px;" id="elnyty278atmd" class="animable"></path><path d="M273.59,193.57a33.84,33.84,0,0,0-6.36,2.21,14.51,14.51,0,0,0-5,3.9h9.57C268.59,197.66,272,194.73,273.59,193.57Z" style="fill: rgb(38, 50, 56); transform-origin: 267.91px 196.625px;" id="eldlnv4bt4x1o" class="animable"></path><path d="M298,194.48a31.41,31.41,0,0,0-4.6-1.3,8.41,8.41,0,0,1-5.08,6.5h16.34A12.47,12.47,0,0,0,298,194.48Z" style="fill: rgb(38, 50, 56); transform-origin: 296.49px 196.43px;" id="elggya329d2q8" class="animable"></path><path d="M279.55,195.6h.08c4.06-.62,10-4.13,10-4.13h0a66.77,66.77,0,0,1-.3-9.79,10.59,10.59,0,0,1-2.89,2.89,9.1,9.1,0,0,1-2.2,1.11,6.6,6.6,0,0,1-4.41,1.85s0-.05,0-.07a4.82,4.82,0,0,1-1.37,4.41h0S275.64,195,279.55,195.6Z" style="fill: rgb(127, 62, 59); transform-origin: 283.553px 188.64px;" id="eldfnxueru61p" class="animable"></path><path d="M279.67,186.43c0-.17-.08-.33-.12-.5C279.59,186.1,279.64,186.26,279.67,186.43Z" style="fill: rgb(127, 62, 59); transform-origin: 279.61px 186.18px;" id="el48l934cwzot" class="animable"></path><g id="el6rjohkclzsd"><path d="M279.86,187.46c-.05-.34-.11-.69-.19-1A9.3,9.3,0,0,1,279.86,187.46Z" style="opacity: 0.2; transform-origin: 279.765px 186.96px;" class="animable"></path></g><g id="ellzrga4dprni"><path d="M279.53,185.85a.19.19,0,0,0,0,.08l0-.08Z" style="opacity: 0.2; transform-origin: 279.528px 185.89px;" class="animable"></path></g><path d="M284.28,185.68a8,8,0,0,1-4.75.17l0,.08c0,.17.09.33.12.5.08.34.14.69.19,1,0,0,0,0,0,.07A6.6,6.6,0,0,0,284.28,185.68Z" style="fill: rgb(127, 62, 59); transform-origin: 281.905px 186.59px;" id="elubhw631hnc" class="animable"></path><g id="elw54sr252o3n"><path d="M284.28,185.68a8,8,0,0,1-4.75.17l0,.08c0,.17.09.33.12.5.08.34.14.69.19,1,0,0,0,0,0,.07A6.6,6.6,0,0,0,284.28,185.68Z" style="opacity: 0.2; transform-origin: 281.905px 186.59px;" class="animable"></path></g><path d="M278.61,163.13h0a1.64,1.64,0,0,1-1.76-.71,9.76,9.76,0,0,0-1.57,3.94,3.29,3.29,0,0,1,1.08-.37A13.29,13.29,0,0,1,278.61,163.13Z" style="fill: rgb(38, 50, 56); transform-origin: 276.945px 164.39px;" id="elf6g5mnh947e" class="animable"></path><path d="M275.2,167.15a9.2,9.2,0,0,0,0,1c.22-.5.45-1,.71-1.47A3.13,3.13,0,0,0,275.2,167.15Z" style="fill: rgb(38, 50, 56); transform-origin: 275.548px 167.415px;" id="elljbgq08uec" class="animable"></path><path d="M284.28,185.68a9.1,9.1,0,0,0,2.2-1.11,10.59,10.59,0,0,0,2.89-2.89,13.57,13.57,0,0,0,1-1.88c-1.85.17-2.46-1.58-1.65-3.27a6.85,6.85,0,0,1,1.07-1.57c-1.19-2.05-.57-7.76-.86-10.06-3.68-2-7.45-2.54-10.36-1.77a13.29,13.29,0,0,0-2.25,2.86,3.24,3.24,0,0,1,.47,0,.29.29,0,0,1,.27.33.32.32,0,0,1-.34.29,2.35,2.35,0,0,0-.83.16c-.26.48-.49,1-.71,1.47a23.71,23.71,0,0,0-2,9.36,8.6,8.6,0,0,0,6.26,8.29h0A8,8,0,0,0,284.28,185.68ZM284.13,167a2.89,2.89,0,0,1,1.82,2.11.32.32,0,0,1-.23.38.26.26,0,0,1-.15,0,.31.31,0,0,1-.22-.22,2.37,2.37,0,0,0-1.42-1.69.29.29,0,0,1-.19-.39A.31.31,0,0,1,284.13,167Zm-2.64,3.51c.12-.53.49-.9.83-.84s.52.54.4,1.06-.49.9-.83.84S281.37,171.05,281.49,170.53Zm-6.25-.72c.12-.52.49-.89.83-.83s.51.54.4,1.06-.49.9-.83.83S275.12,170.34,275.24,169.81Zm.32,4.64a20.47,20.47,0,0,0,3.48-4l-1.11,4.94A2.94,2.94,0,0,1,275.56,174.45Zm3.15,2.52a.19.19,0,0,1,.23-.1,4.66,4.66,0,0,0,4.13-.67.16.16,0,0,1,.24,0,.19.19,0,0,1-.06.24,6.59,6.59,0,0,1-.76.43,4.79,4.79,0,0,1-3.7.28A.17.17,0,0,1,278.71,177Z" style="fill: rgb(127, 62, 59); transform-origin: 281.775px 174.481px;" id="eltc2gb7ti70s" class="animable"></path><path d="M278.61,163.13h0c2.91-.77,6.68-.22,10.36,1.77,3.58-1.24,6-1.24,7.68-.39,2.7-3.18-3.38-7-9.07-7.36,1.85-1.13,1.38-5-5.18-3.36s-7,6.7-5.55,8.63A1.64,1.64,0,0,0,278.61,163.13Z" style="fill: rgb(38, 50, 56); transform-origin: 286.74px 159.145px;" id="els3hmmuadrt8" class="animable"></path><path d="M289,164.9c.29,2.3-.33,8,.86,10.06.93-1,2.21-1.84,3.46-1.51a2.25,2.25,0,0,1,1.42,1.08,6.1,6.1,0,0,0,1.79-4.16c1.14.28,3.6-2.12,2-4.31a5.1,5.1,0,0,0-1.81-1.55C295,163.66,292.55,163.66,289,164.9Z" style="fill: rgb(38, 50, 56); transform-origin: 294.028px 169.437px;" id="elopwdqhbiuo" class="animable"></path><path d="M282.49,176.91a6.59,6.59,0,0,0,.76-.43.19.19,0,0,0,.06-.24.16.16,0,0,0-.24,0,4.66,4.66,0,0,1-4.13.67.19.19,0,0,0-.23.1.17.17,0,0,0,.08.22A4.79,4.79,0,0,0,282.49,176.91Z" style="fill: rgb(38, 50, 56); transform-origin: 281.013px 176.823px;" id="el9vihi0eaw9" class="animable"></path><path d="M293.29,173.45c-1.25-.33-2.53.48-3.46,1.51a6.85,6.85,0,0,0-1.07,1.57c-.81,1.69-.2,3.44,1.65,3.27a.75.75,0,0,1,.15,0,6,6,0,0,0,3.81-2.26,2.8,2.8,0,0,0,.34-3A2.25,2.25,0,0,0,293.29,173.45Z" style="fill: rgb(127, 62, 59); transform-origin: 291.703px 176.593px;" id="elh0ujqbx4p5b" class="animable"></path><path d="M281.89,171.59c.34.06.71-.32.83-.84s-.06-1-.4-1.06-.71.31-.83.84S281.55,171.52,281.89,171.59Z" style="fill: rgb(38, 50, 56); transform-origin: 282.105px 170.64px;" id="ela7ohxxg1qju" class="animable"></path><path d="M276.47,170c.11-.52-.06-1-.4-1.06s-.71.31-.83.83.06,1,.4,1.06S276.35,170.56,276.47,170Z" style="fill: rgb(38, 50, 56); transform-origin: 275.853px 169.885px;" id="elysy00pomn0c" class="animable"></path><path d="M275.56,174.45a2.94,2.94,0,0,0,2.37.92l1.11-4.94A20.47,20.47,0,0,1,275.56,174.45Z" style="fill: rgb(99, 15, 15); transform-origin: 277.3px 172.904px;" id="elz32fbecei9" class="animable"></path><path d="M283.93,167.61a2.37,2.37,0,0,1,1.42,1.69.31.31,0,0,0,.22.22.26.26,0,0,0,.15,0,.32.32,0,0,0,.23-.38,2.89,2.89,0,0,0-1.82-2.11.31.31,0,0,0-.39.2A.29.29,0,0,0,283.93,167.61Z" style="fill: rgb(38, 50, 56); transform-origin: 284.84px 168.273px;" id="el7i2d7j1hb26" class="animable"></path><path d="M276.76,166.57a.32.32,0,0,0,.34-.29.29.29,0,0,0-.27-.33,3.24,3.24,0,0,0-.47,0,3.29,3.29,0,0,0-1.08.37,3.48,3.48,0,0,0-1,.89.31.31,0,0,0,0,.44.27.27,0,0,0,.17.06.33.33,0,0,0,.27-.12,2.9,2.9,0,0,1,1.21-.9A2.35,2.35,0,0,1,276.76,166.57Z" style="fill: rgb(38, 50, 56); transform-origin: 275.646px 166.826px;" id="eloynmw1dwj9j" class="animable"></path><path d="M282.78,196.88a25,25,0,0,0-3.55,2.78v0h6A6.59,6.59,0,0,0,282.78,196.88Z" style="fill: rgb(224, 224, 224); transform-origin: 282.23px 198.27px;" id="eljamxs565kk9" class="animable"></path><path d="M279.6,195.61h0Z" style="fill: rgb(224, 224, 224); transform-origin: 279.6px 195.61px;" id="elap6vfketk3a" class="animable"></path><path d="M276.17,196.41a9.32,9.32,0,0,0-4,3.27h4.73l.27-.38A16.64,16.64,0,0,1,276.17,196.41Z" style="fill: rgb(224, 224, 224); transform-origin: 274.67px 198.045px;" id="el4bx61ndul1o" class="animable"></path><path d="M279.21,199.68h0v0Z" style="fill: rgb(38, 50, 56); transform-origin: 279.21px 199.68px;" id="elhv879d6xdt" class="animable"></path><path d="M276.92,199.68h.46l-.19-.38Z" style="fill: rgb(38, 50, 56); transform-origin: 277.15px 199.49px;" id="elb1ddhij8r3a" class="animable"></path><path d="M282.78,196.88a8.19,8.19,0,0,0-3.18-1.27,8.79,8.79,0,0,0-3.43.8,16.64,16.64,0,0,0,1,2.89l.19.38h1.83l0,0A25,25,0,0,1,282.78,196.88Z" style="fill: rgb(38, 50, 56); transform-origin: 279.475px 197.645px;" id="elgsbl0btg17" class="animable"></path><path d="M293.43,193.18a.75.75,0,0,0,0-.11,9.39,9.39,0,0,0-3.77-1.6h0s-6,3.51-10,4.13h0a8.19,8.19,0,0,1,3.18,1.27,6.59,6.59,0,0,1,2.41,2.8h3.16A8.41,8.41,0,0,0,293.43,193.18Z" style="fill: rgb(250, 250, 250); transform-origin: 286.546px 195.57px;" id="elm3r6i7m97as" class="animable"></path><path d="M276.17,196.41a8.79,8.79,0,0,1,3.43-.8h-.05c-3.91-.63-1.05-3.74-1.05-3.74h0a25.2,25.2,0,0,0-4.17,1.2s-.3.19-.73.5c-1.6,1.16-5,4.09-1.79,6.11h.39A9.32,9.32,0,0,1,276.17,196.41Z" style="fill: rgb(250, 250, 250); transform-origin: 275.039px 195.775px;" id="elvqcu82tw8xm" class="animable"></path><path d="M332.84,168.13l0,0a21.32,21.32,0,0,1,1.87-2.86,3.46,3.46,0,0,0-1,.58.3.3,0,0,1-.25.09.27.27,0,0,1-.21-.09.33.33,0,0,1,.06-.46,3.86,3.86,0,0,1,2-.94,12.35,12.35,0,0,1,4.51-3.32,5.88,5.88,0,0,1-.51-1.85,15.39,15.39,0,0,0-7.94,3.95c-4,4.06-2.71,8.65-1.24,12.17a25.71,25.71,0,0,1,2.62-7.24A.21.21,0,0,1,332.84,168.13Z" style="fill: rgb(38, 50, 56); transform-origin: 334.259px 167.34px;" id="el5xmpc5qrxtl" class="animable"></path><path d="M354.19,169.66a6.14,6.14,0,0,1-.6,3.53,5.52,5.52,0,0,1,.12,4.05c-.89,2.72-3.3,4.54-5.39,4a2.83,2.83,0,0,1-1.51-.94,11.61,11.61,0,0,1-3,2.69,22.64,22.64,0,0,0-.44,5.27c8.65-.64,12.9-5.63,14-11.61,1.13-6.19.52-10.1-1.43-11.29C356.57,167.57,356,169.3,354.19,169.66Z" style="fill: rgb(38, 50, 56); transform-origin: 350.646px 176.81px;" id="el7i0ga857f2c" class="animable"></path><path d="M336.68,185.62l0-.42c0-.06,0-.12,0-.18a7.42,7.42,0,0,1-5.53-3.25c-1.65,1.51-5.19,2-5.19,2s3,3.13,10.57,4.24a7.78,7.78,0,0,0,.19-1.46C336.7,186.25,336.69,185.94,336.68,185.62Z" style="fill: rgb(38, 50, 56); transform-origin: 331.34px 184.89px;" id="elbzwnl74wdyw" class="animable"></path><path d="M337.8,199.68h20.81c0-3.7-6-7-9.8-7.42-.8-.08-1.65-.15-2.51-.2l.09.05C344.47,194.9,339.21,198.69,337.8,199.68Z" style="fill: rgb(212, 74, 112); transform-origin: 348.205px 195.87px;" id="eladlsqq6rsxn" class="animable"></path><path d="M334.13,195.47c-.58.31-1.16.65-1.79,1a8.21,8.21,0,0,1-.77-1.49v0s-2.17.47-3.4,3.45c-.22-4.13,1.09-5.66,1.91-6.2l-1.62.2c-4,.56-9,3.49-11,7.2h19.9C337.2,198.8,336.41,195.8,334.13,195.47Z" style="fill: rgb(212, 74, 112); transform-origin: 327.41px 195.93px;" id="eln07rkq2p40c" class="animable"></path><path d="M336.68,185.62l0-.42Z" style="fill: rgb(206, 122, 99); transform-origin: 336.68px 185.41px;" id="elgaubiv6d3e5" class="animable"></path><path d="M343.83,183c-.33.22-.67.43-1.05.64a11.29,11.29,0,0,1-2.65,1.06,7,7,0,0,1-3.45,1.87v-.05a7.78,7.78,0,0,1-.19,1.46,5,5,0,0,1-3.33,3.61h0a3,3,0,0,0-1.61,3.37,8.21,8.21,0,0,0,.77,1.49c.63-.37,1.21-.71,1.79-1h0c1.5-1.41,8.45-4.25,9.75-4.78a8.1,8.1,0,0,1-.48-2.38A22.64,22.64,0,0,1,343.83,183Z" style="fill: rgb(206, 122, 99); transform-origin: 337.667px 189.725px;" id="ellg6qzh1tv1" class="animable"></path><path d="M334.12,195.47h0c2.28.33,3.07,3.33,3.26,4.21h.41c1.41-1,6.67-4.78,8.59-7.57l-.09-.05a26.1,26.1,0,0,1-2.2-1.46l-.23.09C342.57,191.22,335.62,194.06,334.12,195.47Z" style="fill: rgb(255, 255, 255); transform-origin: 340.25px 195.14px;" id="el6rj2quua94" class="animable"></path><path d="M328.18,198.48c1.23-3,3.4-3.45,3.4-3.45v0a3,3,0,0,1,1.61-3.37h0a3.59,3.59,0,0,0-2.44.35,2.08,2.08,0,0,0-.63.3C329.27,192.82,328,194.35,328.18,198.48Z" style="fill: rgb(255, 255, 255); transform-origin: 330.676px 195.031px;" id="elnnm310d9mgj" class="animable"></path><path d="M336.68,185.62c0,.32,0,.63,0,.94C336.69,186.25,336.69,185.94,336.68,185.62Z" style="fill: rgb(38, 50, 56); transform-origin: 336.684px 186.09px;" id="elcbnx2ud4tl" class="animable"></path><g id="elhavbkj89pc6"><path d="M336.68,185.62c0,.32,0,.63,0,.94C336.69,186.25,336.69,185.94,336.68,185.62Z" style="opacity: 0.2; transform-origin: 336.684px 186.09px;" class="animable"></path></g><path d="M336.64,185c0,.06,0,.12,0,.18s0-.12,0-.17Z" style="fill: rgb(38, 50, 56); transform-origin: 336.64px 185.096px;" id="elvik5z8gdhul" class="animable"></path><g id="elfedocfqmfi9"><path d="M336.64,185c0,.06,0,.12,0,.18s0-.12,0-.17Z" style="opacity: 0.2; transform-origin: 336.64px 185.096px;" class="animable"></path></g><path d="M336.64,185c0,.05,0,.11,0,.17l0,.42c0,.32,0,.63,0,.94v.05a7,7,0,0,0,3.45-1.87A9.59,9.59,0,0,1,336.64,185Z" style="fill: rgb(206, 122, 99); transform-origin: 338.365px 185.645px;" id="el4cakknsp06v" class="animable"></path><g id="el48f7a9th63a"><path d="M336.64,185c0,.05,0,.11,0,.17l0,.42c0,.32,0,.63,0,.94v.05a7,7,0,0,0,3.45-1.87A9.59,9.59,0,0,1,336.64,185Z" style="opacity: 0.2; transform-origin: 338.365px 185.645px;" class="animable"></path></g><path d="M336.64,185h0a9.59,9.59,0,0,0,3.49-.29,11.29,11.29,0,0,0,2.65-1.06c.38-.21.72-.42,1.05-.64a11.61,11.61,0,0,0,3-2.69,5,5,0,0,1-.65-4.88,7.3,7.3,0,0,1,.71-1.49,8.58,8.58,0,0,1-.82-6.16,15,15,0,0,1-5.82-6c-.12-.22-.22-.43-.31-.64a12.35,12.35,0,0,0-4.51,3.32,2.66,2.66,0,0,1,.93,0,.28.28,0,0,1,.2.38.37.37,0,0,1-.42.25,2.62,2.62,0,0,0-1.38.17,21.32,21.32,0,0,0-1.87,2.86l1.08.68h0a.91.91,0,0,1,.13,1.06c-.21.53-.65.89-1,.8s-.45-.6-.25-1.13a1.44,1.44,0,0,1,.53-.68,1.16,1.16,0,0,1-.49-.7,25.71,25.71,0,0,0-2.62,7.24c-.08.44-.16.87-.21,1.29a7.21,7.21,0,0,0,6.62,8.3Zm5.22-12.66a2.66,2.66,0,0,1,2.14.82A5.17,5.17,0,0,1,341.86,172.36Zm2.6-.34a6.46,6.46,0,0,1-2.55-.28A3.35,3.35,0,0,1,344.46,172Zm-3.91-4.87a2.79,2.79,0,0,1,2.41,1.47.34.34,0,0,1-.15.45.35.35,0,0,1-.24.05.26.26,0,0,1-.2-.14,2.29,2.29,0,0,0-1.89-1.19.28.28,0,0,1-.29-.32A.38.38,0,0,1,340.55,167.15Zm-1.27,4a1.41,1.41,0,0,1,.52-.68,1.23,1.23,0,0,1-.5-.75l1.11.7h0a.91.91,0,0,1,.12,1.05c-.2.53-.65.89-1,.8S339.07,171.71,339.28,171.17Zm.23,5.38a.15.15,0,0,1,.23,0,.15.15,0,0,1,0,.22,5.05,5.05,0,0,1-3.42,1,5,5,0,0,1-.9-.15.15.15,0,0,1-.1-.2.19.19,0,0,1,.22-.11A4.85,4.85,0,0,0,339.51,176.55Zm-4-5.31L334,175s-1.29,0-1.72-.85A17.55,17.55,0,0,0,335.5,171.24Z" style="fill: rgb(206, 122, 99); transform-origin: 338.432px 173.099px;" id="el4t63cqergf8" class="animable"></path><path d="M353.59,173.19a6.14,6.14,0,0,0,.6-3.53,3.26,3.26,0,0,1-.73.08h-.16a20.06,20.06,0,0,1-.65,2.24A3.36,3.36,0,0,1,353.59,173.19Z" style="fill: rgb(38, 50, 56); transform-origin: 353.445px 171.425px;" id="elmq20p5yg79m" class="animable"></path><g id="el01mohhh12c2q"><path d="M353.59,173.19a6.14,6.14,0,0,0,.6-3.53,3.26,3.26,0,0,1-.73.08h-.16a20.06,20.06,0,0,1-.65,2.24A3.36,3.36,0,0,1,353.59,173.19Z" style="fill: rgb(38, 50, 56); opacity: 0.7; transform-origin: 353.445px 171.425px;" class="animable"></path></g><path d="M349.7,171.56h0c.24-.69.46-1.4.66-2.12a14.62,14.62,0,0,1-4.3-1.61,8.58,8.58,0,0,0,.82,6.16A5.59,5.59,0,0,1,349.7,171.56Z" style="fill: rgb(206, 122, 99); transform-origin: 348.089px 170.91px;" id="elrwnclrckjob" class="animable"></path><g id="eluwi478e08z"><path d="M349.7,171.56h0c.24-.69.46-1.4.66-2.12a14.62,14.62,0,0,1-4.3-1.61,8.58,8.58,0,0,0,.82,6.16A5.59,5.59,0,0,1,349.7,171.56Z" style="fill: rgb(38, 50, 56); opacity: 0.7; transform-origin: 348.089px 170.91px;" class="animable"></path></g><path d="M341.91,171.74a6.46,6.46,0,0,0,2.55.28A3.35,3.35,0,0,0,341.91,171.74Z" style="fill: rgb(206, 122, 99); transform-origin: 343.185px 171.826px;" id="elclkmnjdid9" class="animable"></path><g id="elldi1menag1m"><path d="M341.91,171.74a6.46,6.46,0,0,0,2.55.28A3.35,3.35,0,0,0,341.91,171.74Z" style="opacity: 0.2; transform-origin: 343.185px 171.826px;" class="animable"></path></g><path d="M341.86,172.36a5.17,5.17,0,0,0,2.14.82A2.66,2.66,0,0,0,341.86,172.36Z" style="fill: rgb(206, 122, 99); transform-origin: 342.93px 172.766px;" id="elngnfxixv4gn" class="animable"></path><g id="elarv38nq31l"><path d="M341.86,172.36a5.17,5.17,0,0,0,2.14.82A2.66,2.66,0,0,0,341.86,172.36Z" style="opacity: 0.2; transform-origin: 342.93px 172.766px;" class="animable"></path></g><path d="M339.52,172.3c.34.09.79-.27,1-.8a.91.91,0,0,0-.12-1.05.66.66,0,0,1-.59,0,1.41,1.41,0,0,0-.52.68C339.07,171.71,339.18,172.21,339.52,172.3Z" style="fill: rgb(38, 50, 56); transform-origin: 339.905px 171.382px;" id="elv9xmumrhidf" class="animable"></path><path d="M333.34,168.89a1.44,1.44,0,0,0-.53.68c-.2.53-.09,1,.25,1.13s.78-.27,1-.8a.91.91,0,0,0-.13-1.06A.62.62,0,0,1,333.34,168.89Z" style="fill: rgb(38, 50, 56); transform-origin: 333.442px 169.782px;" id="elgwa9qbszajv" class="animable"></path><path d="M332.85,168.19a1.16,1.16,0,0,0,.49.7.62.62,0,0,0,.58,0h0l-1.08-.68,0,0A.21.21,0,0,0,332.85,168.19Z" style="fill: rgb(38, 50, 56); transform-origin: 333.38px 168.576px;" id="elj5u5shr82d" class="animable"></path><path d="M334,175l1.46-3.77a17.55,17.55,0,0,1-3.18,2.92C332.75,175,334,175,334,175Z" style="fill: rgb(186, 77, 60); transform-origin: 333.87px 173.115px;" id="el1q74ihhd9il" class="animable"></path><path d="M335.28,177.42a.15.15,0,0,0,.1.2,5,5,0,0,0,.9.15,5.05,5.05,0,0,0,3.42-1,.15.15,0,0,0,0-.22.15.15,0,0,0-.23,0,4.85,4.85,0,0,1-4,.76A.19.19,0,0,0,335.28,177.42Z" style="fill: rgb(38, 50, 56); transform-origin: 337.509px 177.14px;" id="el6xhyn350gjl" class="animable"></path><path d="M340.48,167.79a2.29,2.29,0,0,1,1.89,1.19.26.26,0,0,0,.2.14.35.35,0,0,0,.24-.05.34.34,0,0,0,.15-.45,2.79,2.79,0,0,0-2.41-1.47.38.38,0,0,0-.36.32A.28.28,0,0,0,340.48,167.79Z" style="fill: rgb(38, 50, 56); transform-origin: 341.59px 168.137px;" id="ellj51klz1ilb" class="animable"></path><path d="M333.32,165.88a.27.27,0,0,0,.21.09.3.3,0,0,0,.25-.09,3.46,3.46,0,0,1,1-.58,2.62,2.62,0,0,1,1.38-.17.37.37,0,0,0,.42-.25.28.28,0,0,0-.2-.38,2.66,2.66,0,0,0-.93,0,3.86,3.86,0,0,0-2,.94A.33.33,0,0,0,333.32,165.88Z" style="fill: rgb(38, 50, 56); transform-origin: 334.942px 165.215px;" id="elwlcfz3djeg" class="animable"></path><path d="M340.39,170.45h0l-1.11-.7a1.23,1.23,0,0,0,.5.75A.66.66,0,0,0,340.39,170.45Z" style="fill: rgb(38, 50, 56); transform-origin: 339.835px 170.151px;" id="elkl3fny1ysq" class="animable"></path><path d="M353.3,169.73h.16a3.26,3.26,0,0,0,.73-.08c1.84-.36,2.38-2.09,1.77-4.25a12.63,12.63,0,0,0-3.2-5.1C353.77,162.1,354.25,165.63,353.3,169.73Z" style="fill: rgb(38, 50, 56); transform-origin: 354.48px 165.015px;" id="eldhxjbzod46t" class="animable"></path><path d="M340.23,161.8a15,15,0,0,0,5.82,6,14.62,14.62,0,0,0,4.3,1.61c1.14-4.23,1.35-9-1-11.79-5-3-10.27-2.09-10,1.67a5.88,5.88,0,0,0,.51,1.85C340,161.37,340.11,161.58,340.23,161.8Z" style="fill: rgb(38, 50, 56); transform-origin: 345.258px 162.619px;" id="el6htzktdpgec" class="animable"></path><path d="M348.32,181.29c2.09.49,4.5-1.33,5.39-4a5.52,5.52,0,0,0-.12-4.05,3.36,3.36,0,0,0-.94-1.22c0,.13-.08.26-.13.38-2.11.75-2.79-.71-2.82-.79a5.59,5.59,0,0,0-2.83,2.42,7.3,7.3,0,0,0-.71,1.49,5,5,0,0,0,.65,4.88A2.83,2.83,0,0,0,348.32,181.29Zm4.14-8.25c1.22.18,1.59,2,.82,4.13s-2.37,3.66-3.59,3.47-1.58-2-.82-4.13S351.24,172.86,352.46,173Z" style="fill: rgb(212, 74, 112); transform-origin: 349.918px 176.49px;" id="elnvactbaqzj" class="animable"></path><path d="M348.87,176.51c-.76,2.1-.39,4,.82,4.13s2.83-1.37,3.59-3.47.4-3.95-.82-4.13S349.63,174.41,348.87,176.51Z" style="fill: rgb(212, 74, 112); transform-origin: 351.076px 176.837px;" id="elw0qta0h4pm" class="animable"></path><g id="elhgum91aeklu"><path d="M348.87,176.51c-.76,2.1-.39,4,.82,4.13s2.83-1.37,3.59-3.47.4-3.95-.82-4.13S349.63,174.41,348.87,176.51Z" style="opacity: 0.3; transform-origin: 351.076px 176.837px;" class="animable"></path></g><path d="M350.35,169.43c-.2.72-.42,1.43-.66,2.12h0c0,.08.71,1.54,2.82.79.05-.12.09-.25.13-.38a20.06,20.06,0,0,0,.65-2.24c.95-4.1.47-7.63-.54-9.42v0s-2.06-2.53-3.35-2.65h0C351.7,160.46,351.49,165.2,350.35,169.43Z" style="fill: rgb(212, 74, 112); transform-origin: 351.601px 165.102px;" id="eluiu31yjuyor" class="animable"></path><g id="el4okgwkvdxe5"><rect x="251.55" y="212.62" width="17.55" height="21.13" rx="2.09" style="fill: rgb(212, 74, 112); transform-origin: 260.325px 223.185px; transform: rotate(180deg);" class="animable"></rect></g><path d="M254.55,230.68a7.5,7.5,0,1,1,7.5-7.5A7.51,7.51,0,0,1,254.55,230.68Zm0-14a6.5,6.5,0,1,0,6.5,6.5A6.51,6.51,0,0,0,254.55,216.68Z" style="fill: rgb(212, 74, 112); transform-origin: 254.55px 223.18px;" id="ela8ok91psnkm" class="animable"></path></g><g id="freepik--Character--inject-3" class="animable" style="transform-origin: 185.477px 256.369px;"><polygon points="240.1 405.48 252.9 404.26 244.28 372.73 231.47 373.94 240.1 405.48" style="fill: rgb(255, 181, 115); transform-origin: 242.185px 389.105px;" id="elo37gdfy90hc" class="animable"></polygon><path d="M268.58,413.22c-7.78-2.47-7.45-5.91-15.13-12.42a5.2,5.2,0,0,0-2.77-1.33l-12.74-1.15a1,1,0,0,0-1,.87l-2,8.79c-.69,3,1.14,6,3.77,6.17,4.25.25,9.45.51,14.08.93,6.75.61,6.76,4,14.71,3.81C272.31,418.76,271.23,414.07,268.58,413.22Z" style="fill: rgb(38, 50, 56); transform-origin: 252.816px 408.609px;" id="eltko2httmqc8" class="animable"></path><path d="M163.77,266.71s72.06-2.17,72.67,23.36c1,42.22,13.95,102.62,13.95,102.62L236.2,394S214.71,345.89,209,304.65c-25.67,1.66-49.34.51-68.29.51-21.25,0-23-23.33-2.32-50.55C151.05,254.61,163.77,266.71,163.77,266.71Z" style="fill: rgb(212, 74, 112); transform-origin: 187.09px 324.305px;" id="eldzz6hy662f" class="animable"></path><g id="el7z29wyx8vuw"><path d="M163.77,266.71s72.06-2.17,72.67,23.36c1,42.22,13.95,102.62,13.95,102.62L236.2,394S214.71,345.89,209,304.65c-25.67,1.66-49.34.51-68.29.51-21.25,0-23-23.33-2.32-50.55C151.05,254.61,163.77,266.71,163.77,266.71Z" style="fill: rgb(255, 255, 255); opacity: 0.5; transform-origin: 187.09px 324.305px;" class="animable"></path></g><polygon points="251.77 393.58 235.54 395.46 231.89 386.27 250.39 380.36 251.77 393.58" style="fill: rgb(212, 74, 112); transform-origin: 241.83px 387.91px;" id="el7ubdydle3k7" class="animable"></polygon><path d="M139.21,143.33c1.32,8,2.43,22.54-3.27,27.66,0,0,13.92,7.29,23,20,9.76-7.73,1.59-19.27,1.59-19.27-8.77-2.37-8.35-8.92-6.63-15Z" style="fill: rgb(255, 181, 115); transform-origin: 149.836px 167.16px;" id="elaajihis1gqm" class="animable"></path><path d="M131.5,173.51c-.5-5.44-2.58-7.93-2.58-7.93s21.83-1.85,34,2.78c2.44,4.67,4.58,9.5,4.58,9.5Z" style="fill: rgb(212, 74, 112); transform-origin: 148.21px 171.537px;" id="ellel8kn8ra7e" class="animable"></path><path d="M184,192.62c-.85,11.52-3.41,30.93-9.73,63.6L120,254.61c1.42-20-.73-35-5.63-70a11.38,11.38,0,0,1,10.12-12.9c3.49-.36,7.44-.66,11.42-.73,9.14-.17,16.63-.24,24.63.73,2.64.32,5.37.74,8,1.19A18.61,18.61,0,0,1,184,192.62Z" style="fill: rgb(38, 50, 56); transform-origin: 149.155px 213.549px;" id="elfsil54lzruf" class="animable"></path><path d="M167.48,131.21c.14,1.07.83,1.86,1.52,1.76s1.15-1,1-2.11-.83-1.85-1.52-1.76S167.33,130.14,167.48,131.21Z" style="fill: rgb(38, 50, 56); transform-origin: 168.74px 131.036px;" id="elm03n4l6abl" class="animable"></path><path d="M168.17,129.2l2.47-1.08S169.6,130.3,168.17,129.2Z" style="fill: rgb(38, 50, 56); transform-origin: 169.405px 128.815px;" id="el1lmumkozgec" class="animable"></path><path d="M167.87,132.86s2.44,4.35,4.74,6.3c-1.23,1.5-3.71,1.23-3.71,1.23Z" style="fill: rgb(237, 137, 62); transform-origin: 170.24px 136.634px;" id="elg7sapqlqgpn" class="animable"></path><path d="M167.45,121.83a.64.64,0,0,0,0-.63.63.63,0,0,0-.85-.28,6.26,6.26,0,0,0-3.53,4.57.63.63,0,0,0,.55.7.64.64,0,0,0,.71-.55h0a5,5,0,0,1,2.83-3.59A.6.6,0,0,0,167.45,121.83Z" style="fill: rgb(38, 50, 56); transform-origin: 165.299px 123.523px;" id="elsv981virre" class="animable"></path><path d="M130.57,131.58c2.6,13,3.42,18.56,11,24.38,11.35,8.77,26.75,2.73,28.09-10.78,1.2-12.17-3.25-31.39-16.79-34.85A18.08,18.08,0,0,0,130.57,131.58Z" style="fill: rgb(255, 181, 115); transform-origin: 150.01px 134.9px;" id="elv1d0ctbrdg" class="animable"></path><path d="M158.83,135.33c3,11.92-5.75,15.42-5.75,15.42,2.59,4.93-4.09,15.63-16.83,9.32-11.36-5.63-4.58-13.82-4.58-13.82s-9.09-2-12.59-15.21,4.17-22.62,17.67-25.87,21.17.08,23.67,6.16c2.58-2.58,9,1.59,8.32,7.25-4.49,5.5-12,4.94-12,4.94S169,131.75,158.83,135.33Z" style="fill: rgb(38, 50, 56); transform-origin: 143.513px 132.954px;" id="elqvia64qn3m" class="animable"></path><path d="M127.51,110.71c4.25-7.1-22.46-32.14-37.63-3.34s5.68,29.52,8.34,49.3c20.56-15,15.45-41.79,11.28-48.19C120.63,108.07,122.57,119.2,127.51,110.71Z" style="fill: rgb(38, 50, 56); transform-origin: 106.181px 125.254px;" id="eluoj0v5qjd0i" class="animable"></path><path d="M121.12,115.51c-3.83-3.83-7.81-3.41-6.69-5.78s7.52-7.82,6.41-11.28c6.1.74,9.59,6.63,10.76,10.65a4.73,4.73,0,0,1-.86,4.27C127.45,117.5,123.88,119.13,121.12,115.51Z" style="fill: rgb(212, 74, 112); transform-origin: 123.011px 107.982px;" id="elculamqwi9fb" class="animable"></path><path d="M154.59,135.56a10.35,10.35,0,0,0,5,6.13c3.23,1.7,5.6-1,5.34-4.45-.23-3.1-2.2-7.72-5.74-8S153.64,132.32,154.59,135.56Z" style="fill: rgb(255, 181, 115); transform-origin: 159.652px 135.718px;" id="elusxvuagl1b" class="animable"></path><polygon points="272.11 368.78 282.22 363.3 272.81 338.63 259.98 346.32 272.11 368.78" style="fill: rgb(255, 181, 115); transform-origin: 271.1px 353.705px;" id="elxsg7qlonnc" class="animable"></polygon><path d="M281,358.24l-12.17,7.12a1.15,1.15,0,0,0-.49,1.4l3.19,8.48c1.11,2.94,4.44,3.8,7.28,2.47,3.88-1.83,6.73-5.91,11.48-8.72,6.88-4.09,7.87-3.72,13.07-10.38,3.5-4.5-1.72-5.68-3.9-4.52-5.49,2.9-3.71,3.46-15,3.36A6.66,6.66,0,0,0,281,358.24Z" style="fill: rgb(38, 50, 56); transform-origin: 286.4px 365.996px;" id="el0mx878hy3nj" class="animable"></path><path d="M155.35,255.28s87.8-13,96.89,9.52c15.82,39.15,25.84,88.12,25.84,88.12l-11.62,7.81S241.32,322.31,227.71,283c-16.27,5.27-68,22.2-87,22.2-20.25,0-28.51-17.26-21.2-45.92a5.74,5.74,0,0,1,5.61-4.31C137.89,255,155.35,255.28,155.35,255.28Z" style="fill: rgb(212, 74, 112); transform-origin: 197.484px 306.139px;" id="elidrv0y3gafo" class="animable"></path><g id="elb8di1l9ehib"><path d="M155.35,255.28s87.8-13,96.89,9.52c15.82,39.15,25.84,88.12,25.84,88.12l-11.62,7.81S241.32,322.31,227.71,283c-16.27,5.27-68,22.2-87,22.2-20.25,0-28.51-17.26-21.2-45.92a5.74,5.74,0,0,1,5.61-4.31C137.89,255,155.35,255.28,155.35,255.28Z" style="fill: rgb(255, 255, 255); opacity: 0.6; transform-origin: 197.484px 306.139px;" class="animable"></path></g><polygon points="279.53 352.9 265.37 362.05 259.98 353.67 277.46 339.14 279.53 352.9" style="fill: rgb(212, 74, 112); transform-origin: 269.755px 350.595px;" id="el2uxou0lm2lq" class="animable"></polygon><path d="M119.31,251.4l-1.53,4.82c-.2.37.23.76.86.78l55.82,1.66c.49,0,.9-.21.94-.52l.63-4.84c.05-.33-.37-.63-.9-.65L120.21,251A1,1,0,0,0,119.31,251.4Z" style="fill: rgb(255, 255, 255); transform-origin: 146.882px 254.828px;" id="elzy6l9sy2qvj" class="animable"></path><path d="M182.74,195.36l3.46,9c1.17,3,2.37,6,3.59,9a173.58,173.58,0,0,0,8,17l.27.5s.06.1.05.09a3.91,3.91,0,0,0-.3-.41,6.12,6.12,0,0,0-.71-.73,6.64,6.64,0,0,0-.78-.55,5.52,5.52,0,0,0-.71-.34l-.33-.11-.24-.07-.25-.05-.17,0a2.7,2.7,0,0,0-.48,0s-.12,0-.09,0,.16,0,.33,0a16.05,16.05,0,0,0,3.46-1,89.09,89.09,0,0,0,8.41-3.77c5.72-2.82,11.51-6,17.28-9.07l.08,0a4,4,0,0,1,4.64,6.41,142.49,142.49,0,0,1-15.76,13.07,79.43,79.43,0,0,1-9.09,5.67,30.09,30.09,0,0,1-5.87,2.4,14.71,14.71,0,0,1-2.12.42,13.26,13.26,0,0,1-1.34.09,10.75,10.75,0,0,1-1.71-.11l-.48-.08-.55-.12-.54-.15c-.2-.06-.42-.15-.62-.23a7.75,7.75,0,0,1-1.27-.62,8.87,8.87,0,0,1-2.41-2.09,8.05,8.05,0,0,1-.49-.66l-.11-.16-.38-.57a95,95,0,0,1-5.53-9.11c-1.7-3-3.2-6.14-4.66-9.25s-2.79-6.23-4.07-9.39-2.46-6.29-3.57-9.64a8,8,0,0,1,15.05-5.41Z" style="fill: rgb(255, 181, 115); transform-origin: 198.37px 216.581px;" id="elat9cbll0hi5" class="animable"></path><path d="M176,175.91c12.47,9.14,13.45,29.6,13.45,29.6L165,220.22s-6.54-16.76-3-29.23C164.6,181.88,170.73,172.08,176,175.91Z" style="fill: rgb(38, 50, 56); transform-origin: 175.2px 197.639px;" id="el8m5jo6usl5x" class="animable"></path><path d="M243.46,220.05l-5.08,2.79a6.54,6.54,0,0,1-4.16.73l-5.49-.81a14.92,14.92,0,0,1-9-4.91h0c.92-5.14,9.68-5.32,9.68-5.32l6.44-2.74a2.8,2.8,0,0,1,3.08.6l5.22,5.23A2.8,2.8,0,0,1,243.46,220.05Z" style="fill: rgb(255, 181, 115); transform-origin: 232.339px 216.607px;" id="elzemrh2r7u48" class="animable"></path><path d="M201.3,312.23c-1.27-9-9.62-16.37-18.66-16.37H166.27l-13.51-96.42a17,17,0,0,0-16.25-14.24H78.81c-7.87,0-13.36,6.37-12.25,14.24L79,288.25C80.92,301.91,93.53,313,107.19,313H201.4Z" style="fill: rgb(212, 74, 112); transform-origin: 133.909px 249.1px;" id="elv96tjgssjx" class="animable"></path><path d="M192.67,307.83a3,3,0,0,1-2.87-2.1l-6.55-20.85A12.61,12.61,0,0,0,171.16,276H155a3,3,0,0,1,0-6h16.16A18.61,18.61,0,0,1,189,283.08l6.55,20.85a3,3,0,0,1-2,3.77A3.16,3.16,0,0,1,192.67,307.83Z" style="fill: rgb(212, 74, 112); transform-origin: 173.844px 288.915px;" id="el66n31vuoob3" class="animable"></path><polygon points="139.83 417.87 127.67 417.87 127.75 312.97 139.75 312.97 139.83 417.87" style="fill: rgb(212, 74, 112); transform-origin: 133.75px 365.42px;" id="elpe9lgkiaq7" class="animable"></polygon><g id="el8fnas0pwbk8"><polygon points="139.83 417.87 127.67 417.87 127.75 312.97 139.75 312.97 139.83 417.87" style="fill: rgb(255, 255, 255); opacity: 0.6; transform-origin: 133.75px 365.42px;" class="animable"></polygon></g><g id="elwswunijl68j"><polygon points="139.75 318.36 127.75 321.29 127.75 312.97 139.75 312.97 139.75 318.36" style="fill: rgb(212, 74, 112); opacity: 0.3; transform-origin: 133.75px 317.13px;" class="animable"></polygon></g><path d="M133.73,415.3c-12.26,0-22.21,2.18-22.21,3.6h44.42C155.94,417.48,146,415.3,133.73,415.3Z" style="fill: rgb(38, 50, 56); transform-origin: 133.73px 417.1px;" id="ellzyghk9cru" class="animable"></path></g><defs>     <filter id="active" height="200%">         <feMorphology in="SourceAlpha" result="DILATED" operator="dilate" radius="2"></feMorphology>                <feFlood flood-color="#32DFEC" flood-opacity="1" result="PINK"></feFlood>        <feComposite in="PINK" in2="DILATED" operator="in" result="OUTLINE"></feComposite>        <feMerge>            <feMergeNode in="OUTLINE"></feMergeNode>            <feMergeNode in="SourceGraphic"></feMergeNode>        </feMerge>    </filter>    <filter id="hover" height="200%">        <feMorphology in="SourceAlpha" result="DILATED" operator="dilate" radius="2"></feMorphology>                <feFlood flood-color="#ff0000" flood-opacity="0.5" result="PINK"></feFlood>        <feComposite in="PINK" in2="DILATED" operator="in" result="OUTLINE"></feComposite>        <feMerge>            <feMergeNode in="OUTLINE"></feMergeNode>            <feMergeNode in="SourceGraphic"></feMergeNode>        </feMerge>            <feColorMatrix type="matrix" values="0   0   0   0   0                0   1   0   0   0                0   0   0   0   0                0   0   0   1   0 "></feColorMatrix>    </filter></defs></svg>