<svg id="visual" viewBox="0 0 900 600" width="900" height="600" xmlns="http://www.w3.org/2000/svg" xmlns:xlink="http://www.w3.org/1999/xlink" version="1.1"><path d="M556 600L566 580C576 560 596 520 605.3 480C614.7 440 613.3 400 588 360C562.7 320 513.3 280 484.2 240C455 200 446 160 456.7 120C467.3 80 497.7 40 512.8 20L528 0L900 0L900 20C900 40 900 80 900 120C900 160 900 200 900 240C900 280 900 320 900 360C900 400 900 440 900 480C900 520 900 560 900 580L900 600Z" fill="#a4bef3" stroke-linecap="round" stroke-linejoin="miter"></path></svg>